Decovar-Regular24bldA.ufo
<glyph name="ampersand" format="1">
  <advance width="1589"/>
  <unicode hex="0026"/>
  <outline>
    <contour>
      <point x="792" y="-32" type="qcurve" smooth="yes"/>
      <point x="495" y="-32"/>
      <point x="96" y="366"/>
      <point x="96" y="700" type="qcurve" smooth="yes"/>
      <point x="96" y="1034"/>
      <point x="495" y="1432"/>
      <point x="821" y="1432" type="qcurve" smooth="yes"/>
      <point x="953" y="1432"/>
      <point x="1172" y="1301"/>
      <point x="1211" y="1166" type="qcurve"/>
      <point x="1028" y="1150" type="line"/>
      <point x="996" y="1210"/>
      <point x="875" y="1281"/>
      <point x="789" y="1281" type="qcurve" smooth="yes"/>
      <point x="573" y="1281"/>
      <point x="268" y="964"/>
      <point x="268" y="697" type="qcurve" smooth="yes"/>
      <point x="268" y="428"/>
      <point x="573" y="121"/>
      <point x="787" y="121" type="qcurve" smooth="yes"/>
      <point x="1000" y="121"/>
      <point x="1263" y="395"/>
      <point x="1263" y="636" type="qcurve" smooth="yes"/>
      <point x="1263" y="655"/>
      <point x="1261" y="692"/>
      <point x="1260" y="711" type="qcurve"/>
      <point x="1447" y="711" type="line"/>
      <point x="1448" y="693"/>
      <point x="1450" y="656"/>
      <point x="1450" y="637" type="qcurve" smooth="yes"/>
      <point x="1450" y="335"/>
      <point x="1088" y="-32"/>
    </contour>
    <contour>
      <point x="228" y="370" type="line"/>
      <point x="246" y="711"/>
      <point x="643" y="1129"/>
      <point x="982" y="1170" type="qcurve" smooth="yes"/>
      <point x="1275" y="1205"/>
      <point x="1575" y="1379"/>
      <point x="1575" y="1544" type="qcurve" smooth="yes"/>
      <point x="1575" y="1558"/>
      <point x="1573" y="1586"/>
      <point x="1571" y="1599" type="qcurve"/>
      <point x="1736" y="1599" type="line"/>
      <point x="1737" y="1585"/>
      <point x="1740" y="1557"/>
      <point x="1740" y="1542" type="qcurve" smooth="yes"/>
      <point x="1740" y="1309"/>
      <point x="1357" y="1061"/>
      <point x="1024" y="1027" type="qcurve" smooth="yes"/>
      <point x="710" y="995"/>
      <point x="352" y="640"/>
      <point x="340" y="377" type="qcurve"/>
    </contour>
  </outline>
</glyph>
<glyph name="A" format="1">
  <advance width="1274"/>
  <unicode hex="0041"/>
  <outline>
    <contour>
      <point x="291" y="244" type="qcurve" smooth="yes"/>
      <point x="251" y="244"/>
      <point x="251" y="244"/>
      <point x="253" y="248" type="qcurve" smooth="yes"/>
      <point x="255" y="252"/>
      <point x="255" y="252"/>
      <point x="295" y="252" type="qcurve" smooth="yes"/>
      <point x="391" y="252"/>
      <point x="544" y="252"/>
      <point x="629" y="252" type="qcurve" smooth="yes"/>
      <point x="709" y="252"/>
      <point x="934" y="252"/>
      <point x="974" y="252" type="qcurve" smooth="yes"/>
      <point x="1014" y="252"/>
      <point x="1014" y="252"/>
      <point x="1016" y="248" type="qcurve" smooth="yes"/>
      <point x="1018" y="244"/>
      <point x="1018" y="244"/>
      <point x="978" y="244" type="qcurve" smooth="yes"/>
      <point x="938" y="244"/>
      <point x="709" y="244"/>
      <point x="629" y="244" type="qcurve" smooth="yes"/>
      <point x="544" y="244"/>
      <point x="387" y="244"/>
    </contour>
    <contour>
      <point x="348" y="372" type="qcurve" smooth="yes"/>
      <point x="308" y="372"/>
      <point x="308" y="372"/>
      <point x="310" y="377" type="qcurve"/>
      <point x="311" y="380"/>
      <point x="311" y="380"/>
      <point x="351" y="380" type="qcurve" smooth="yes"/>
      <point x="391" y="380"/>
      <point x="544" y="380"/>
      <point x="629" y="380" type="qcurve" smooth="yes"/>
      <point x="709" y="380"/>
      <point x="878" y="380"/>
      <point x="918" y="380" type="qcurve" smooth="yes"/>
      <point x="958" y="380"/>
      <point x="958" y="380"/>
      <point x="960" y="376" type="qcurve" smooth="yes"/>
      <point x="962" y="372"/>
      <point x="962" y="372"/>
      <point x="922" y="372" type="qcurve" smooth="yes"/>
      <point x="882" y="372"/>
      <point x="709" y="372"/>
      <point x="629" y="372" type="qcurve" smooth="yes"/>
      <point x="544" y="372"/>
      <point x="387" y="372"/>
    </contour>
    <contour>
      <point x="312" y="735" type="qcurve" smooth="yes"/>
      <point x="308" y="737"/>
      <point x="308" y="737"/>
      <point x="323" y="771" type="qcurve" smooth="yes"/>
      <point x="402" y="947"/>
      <point x="477" y="1122"/>
      <point x="506" y="1190" type="qcurve" smooth="yes"/>
      <point x="517" y="1216"/>
      <point x="517" y="1216"/>
      <point x="522" y="1216" type="qcurve" smooth="yes"/>
      <point x="527" y="1216"/>
      <point x="527" y="1216"/>
      <point x="516" y="1191" type="qcurve" smooth="yes"/>
      <point x="484" y="1120"/>
      <point x="408" y="943"/>
      <point x="330" y="766" type="qcurve" smooth="yes"/>
      <point x="316" y="733"/>
      <point x="316" y="733"/>
    </contour>
    <contour>
      <point x="440" y="678" type="qcurve"/>
      <point x="436" y="680"/>
      <point x="436" y="680"/>
      <point x="451" y="714" type="qcurve" smooth="yes"/>
      <point x="531" y="897"/>
      <point x="598" y="1051"/>
      <point x="619" y="1098" type="qcurve" smooth="yes"/>
      <point x="634" y="1132"/>
      <point x="634" y="1132"/>
      <point x="636" y="1127" type="qcurve"/>
      <point x="638" y="1123"/>
      <point x="638" y="1123"/>
      <point x="627" y="1097" type="qcurve" smooth="yes"/>
      <point x="609" y="1055"/>
      <point x="538" y="895"/>
      <point x="458" y="712" type="qcurve" smooth="yes"/>
      <point x="443" y="677"/>
      <point x="443" y="677"/>
    </contour>
    <contour>
      <point x="967" y="734" type="qcurve"/>
      <point x="963" y="733"/>
      <point x="963" y="733"/>
      <point x="948" y="766" type="qcurve" smooth="yes"/>
      <point x="870" y="945"/>
      <point x="796" y="1120"/>
      <point x="763" y="1191" type="qcurve" smooth="yes"/>
      <point x="751" y="1216"/>
      <point x="751" y="1216"/>
      <point x="755" y="1216" type="qcurve" smooth="yes"/>
      <point x="759" y="1216"/>
      <point x="759" y="1216"/>
      <point x="771" y="1190" type="qcurve" smooth="yes"/>
      <point x="803" y="1123"/>
      <point x="877" y="947"/>
      <point x="956" y="771" type="qcurve" smooth="yes"/>
      <point x="972" y="736"/>
      <point x="972" y="736"/>
    </contour>
    <contour>
      <point x="834" y="676" type="qcurve"/>
      <point x="829" y="674"/>
      <point x="829" y="674"/>
      <point x="813" y="712" type="qcurve" smooth="yes"/>
      <point x="733" y="895"/>
      <point x="668" y="1054"/>
      <point x="649" y="1097" type="qcurve" smooth="yes"/>
      <point x="638" y="1123"/>
      <point x="638" y="1123"/>
      <point x="640" y="1128" type="qcurve"/>
      <point x="642" y="1132"/>
      <point x="642" y="1132"/>
      <point x="657" y="1098" type="qcurve" smooth="yes"/>
      <point x="677" y="1051"/>
      <point x="741" y="897"/>
      <point x="821" y="714" type="qcurve" smooth="yes"/>
      <point x="838" y="678"/>
      <point x="838" y="678"/>
    </contour>
    <contour>
      <point x="522" y="1216" type="qcurve" smooth="yes"/>
      <point x="517" y="1216"/>
      <point x="517" y="1216"/>
      <point x="533" y="1252" type="qcurve" smooth="yes"/>
      <point x="580" y="1360"/>
      <point x="580" y="1360"/>
      <point x="584" y="1360" type="qcurve" smooth="yes"/>
      <point x="589" y="1360"/>
      <point x="589" y="1360"/>
      <point x="542" y="1251" type="qcurve" smooth="yes"/>
      <point x="527" y="1216"/>
      <point x="527" y="1216"/>
    </contour>
    <contour>
      <point x="612" y="1360" type="qcurve" smooth="yes"/>
      <point x="580" y="1360"/>
      <point x="580" y="1360"/>
      <point x="582" y="1364" type="qcurve" smooth="yes"/>
      <point x="584" y="1368"/>
      <point x="584" y="1368"/>
      <point x="612" y="1368" type="qcurve" smooth="yes"/>
      <point x="638" y="1368"/>
      <point x="638" y="1368"/>
      <point x="638" y="1364" type="qcurve" smooth="yes"/>
      <point x="638" y="1360"/>
      <point x="638" y="1360"/>
    </contour>
    <contour>
      <point x="636" y="1128" type="qcurve"/>
      <point x="634" y="1132"/>
      <point x="634" y="1132"/>
      <point x="636" y="1137" type="qcurve" smooth="yes"/>
      <point x="638" y="1142"/>
      <point x="638" y="1142"/>
      <point x="640" y="1137" type="qcurve" smooth="yes"/>
      <point x="642" y="1132"/>
      <point x="642" y="1132"/>
      <point x="640" y="1128" type="qcurve"/>
      <point x="638" y="1123"/>
      <point x="638" y="1123"/>
    </contour>
    <contour>
      <point x="755" y="1216" type="qcurve" smooth="yes"/>
      <point x="750" y="1216"/>
      <point x="750" y="1216"/>
      <point x="735" y="1250" type="qcurve" smooth="yes"/>
      <point x="687" y="1360"/>
      <point x="687" y="1360"/>
      <point x="691" y="1360" type="qcurve" smooth="yes"/>
      <point x="696" y="1360"/>
      <point x="696" y="1360"/>
      <point x="743" y="1252" type="qcurve" smooth="yes"/>
      <point x="759" y="1216"/>
      <point x="759" y="1216"/>
    </contour>
    <contour>
      <point x="664" y="1360" type="qcurve" smooth="yes"/>
      <point x="638" y="1360"/>
      <point x="638" y="1360"/>
      <point x="638" y="1364" type="qcurve" smooth="yes"/>
      <point x="638" y="1368"/>
      <point x="638" y="1368"/>
      <point x="664" y="1368" type="qcurve" smooth="yes"/>
      <point x="692" y="1368"/>
      <point x="692" y="1368"/>
      <point x="694" y="1364" type="qcurve" smooth="yes"/>
      <point x="696" y="1360"/>
      <point x="696" y="1360"/>
    </contour>
    <contour>
      <point x="193" y="121" type="qcurve"/>
      <point x="196" y="119"/>
      <point x="196" y="119"/>
      <point x="166" y="52" type="qcurve" smooth="yes"/>
      <point x="140" y="-9"/>
      <point x="140" y="-9"/>
      <point x="136" y="-7" type="qcurve"/>
      <point x="132" y="-6"/>
      <point x="132" y="-6"/>
      <point x="159" y="55" type="qcurve" smooth="yes"/>
      <point x="189" y="122"/>
      <point x="189" y="122"/>
    </contour>
    <contour>
      <point x="106" y="6" type="qcurve" smooth="yes"/>
      <point x="140" y="-9"/>
      <point x="140" y="-9"/>
      <point x="138" y="-12" type="qcurve"/>
      <point x="136" y="-16"/>
      <point x="136" y="-16"/>
      <point x="103" y="-1" type="qcurve" smooth="yes"/>
      <point x="69" y="14"/>
      <point x="69" y="14"/>
      <point x="70" y="17" type="qcurve"/>
      <point x="72" y="21"/>
      <point x="72" y="21"/>
    </contour>
    <contour>
      <point x="65" y="177" type="qcurve"/>
      <point x="68" y="176"/>
      <point x="68" y="176"/>
      <point x="38" y="108" type="qcurve" smooth="yes"/>
      <point x="12" y="48"/>
      <point x="12" y="48"/>
      <point x="8" y="49" type="qcurve"/>
      <point x="4" y="51"/>
      <point x="4" y="51"/>
      <point x="31" y="111" type="qcurve" smooth="yes"/>
      <point x="61" y="179"/>
      <point x="61" y="179"/>
    </contour>
    <contour>
      <point x="38" y="36" type="qcurve" smooth="yes"/>
      <point x="72" y="21"/>
      <point x="72" y="21"/>
      <point x="70" y="17" type="qcurve"/>
      <point x="69" y="14"/>
      <point x="69" y="14"/>
      <point x="35" y="29" type="qcurve" smooth="yes"/>
      <point x="1" y="44"/>
      <point x="1" y="44"/>
      <point x="3" y="47" type="qcurve"/>
      <point x="4" y="51"/>
      <point x="4" y="51"/>
    </contour>
    <contour>
      <point x="439" y="679" type="qcurve"/>
      <point x="443" y="677"/>
      <point x="443" y="677"/>
      <point x="428" y="643" type="qcurve" smooth="yes"/>
      <point x="413" y="609"/>
      <point x="413" y="609"/>
      <point x="410" y="611" type="qcurve"/>
      <point x="406" y="613"/>
      <point x="406" y="613"/>
      <point x="421" y="646" type="qcurve" smooth="yes"/>
      <point x="436" y="680"/>
      <point x="436" y="680"/>
    </contour>
    <contour>
      <point x="410" y="611" type="qcurve"/>
      <point x="413" y="609"/>
      <point x="413" y="609"/>
      <point x="398" y="576" type="qcurve" smooth="yes"/>
      <point x="383" y="542"/>
      <point x="383" y="542"/>
      <point x="380" y="543" type="qcurve"/>
      <point x="376" y="545"/>
      <point x="376" y="545"/>
      <point x="391" y="579" type="qcurve" smooth="yes"/>
      <point x="406" y="613"/>
      <point x="406" y="613"/>
    </contour>
    <contour>
      <point x="311" y="735" type="qcurve"/>
      <point x="315" y="734"/>
      <point x="315" y="734"/>
      <point x="300" y="700" type="qcurve" smooth="yes"/>
      <point x="285" y="666"/>
      <point x="285" y="666"/>
      <point x="281" y="668" type="qcurve"/>
      <point x="278" y="669"/>
      <point x="278" y="669"/>
      <point x="293" y="703" type="qcurve" smooth="yes"/>
      <point x="308" y="737"/>
      <point x="308" y="737"/>
    </contour>
    <contour>
      <point x="281" y="668" type="qcurve"/>
      <point x="285" y="666"/>
      <point x="285" y="666"/>
      <point x="270" y="632" type="qcurve" smooth="yes"/>
      <point x="255" y="598"/>
      <point x="255" y="598"/>
      <point x="252" y="600" type="qcurve"/>
      <point x="248" y="602"/>
      <point x="248" y="602"/>
      <point x="263" y="635" type="qcurve" smooth="yes"/>
      <point x="278" y="669"/>
      <point x="278" y="669"/>
    </contour>
    <contour>
      <point x="380" y="543" type="qcurve"/>
      <point x="383" y="542"/>
      <point x="383" y="542"/>
      <point x="368" y="508" type="qcurve" smooth="yes"/>
      <point x="353" y="474"/>
      <point x="335" y="433"/>
      <point x="289" y="328" type="qcurve" smooth="yes"/>
      <point x="244" y="226"/>
      <point x="227" y="189"/>
      <point x="212" y="154" type="qcurve" smooth="yes"/>
      <point x="196" y="119"/>
      <point x="196" y="119"/>
      <point x="193" y="121" type="qcurve"/>
      <point x="190" y="122"/>
      <point x="190" y="122"/>
      <point x="205" y="157" type="qcurve" smooth="yes"/>
      <point x="221" y="192"/>
      <point x="238" y="230"/>
      <point x="282" y="331" type="qcurve" smooth="yes"/>
      <point x="329" y="438"/>
      <point x="347" y="477"/>
      <point x="362" y="511" type="qcurve" smooth="yes"/>
      <point x="377" y="545"/>
      <point x="377" y="545"/>
    </contour>
    <contour>
      <point x="252" y="600" type="qcurve" smooth="yes"/>
      <point x="254" y="599"/>
      <point x="254" y="599"/>
      <point x="239" y="565" type="qcurve" smooth="yes"/>
      <point x="224" y="531"/>
      <point x="206" y="490"/>
      <point x="160" y="385" type="qcurve" smooth="yes"/>
      <point x="115" y="283"/>
      <point x="98" y="246"/>
      <point x="83" y="211" type="qcurve" smooth="yes"/>
      <point x="67" y="176"/>
      <point x="67" y="176"/>
      <point x="65" y="177" type="qcurve" smooth="yes"/>
      <point x="61" y="179"/>
      <point x="61" y="179"/>
      <point x="76" y="214" type="qcurve" smooth="yes"/>
      <point x="92" y="249"/>
      <point x="109" y="287"/>
      <point x="153" y="388" type="qcurve" smooth="yes"/>
      <point x="201" y="495"/>
      <point x="218" y="534"/>
      <point x="233" y="568" type="qcurve" smooth="yes"/>
      <point x="248" y="602"/>
      <point x="248" y="602"/>
    </contour>
    <contour>
      <point x="1213" y="176" type="qcurve"/>
      <point x="1217" y="177"/>
      <point x="1217" y="177"/>
      <point x="1246" y="110" type="qcurve" smooth="yes"/>
      <point x="1273" y="49"/>
      <point x="1273" y="49"/>
      <point x="1269" y="48" type="qcurve"/>
      <point x="1265" y="46"/>
      <point x="1265" y="46"/>
      <point x="1239" y="106" type="qcurve" smooth="yes"/>
      <point x="1209" y="174"/>
      <point x="1209" y="174"/>
    </contour>
    <contour>
      <point x="1237" y="34" type="qcurve" smooth="yes"/>
      <point x="1273" y="49"/>
      <point x="1273" y="49"/>
      <point x="1274" y="45" type="qcurve"/>
      <point x="1276" y="42"/>
      <point x="1276" y="42"/>
      <point x="1240" y="26" type="qcurve" smooth="yes"/>
      <point x="1204" y="11"/>
      <point x="1204" y="11"/>
      <point x="1203" y="14" type="qcurve"/>
      <point x="1201" y="18"/>
      <point x="1201" y="18"/>
    </contour>
    <contour>
      <point x="1077" y="117" type="qcurve"/>
      <point x="1081" y="118"/>
      <point x="1081" y="118"/>
      <point x="1111" y="50" type="qcurve" smooth="yes"/>
      <point x="1137" y="-10"/>
      <point x="1137" y="-10"/>
      <point x="1133" y="-12" type="qcurve"/>
      <point x="1130" y="-13"/>
      <point x="1130" y="-13"/>
      <point x="1103" y="47" type="qcurve" smooth="yes"/>
      <point x="1074" y="115"/>
      <point x="1074" y="115"/>
    </contour>
    <contour>
      <point x="1165" y="2" type="qcurve" smooth="yes"/>
      <point x="1201" y="18"/>
      <point x="1201" y="18"/>
      <point x="1203" y="14" type="qcurve"/>
      <point x="1204" y="11"/>
      <point x="1204" y="11"/>
      <point x="1169" y="-5" type="qcurve" smooth="yes"/>
      <point x="1133" y="-21"/>
      <point x="1133" y="-21"/>
      <point x="1131" y="-17" type="qcurve"/>
      <point x="1130" y="-13"/>
      <point x="1130" y="-13"/>
    </contour>
    <contour>
      <point x="1028" y="599" type="qcurve"/>
      <point x="1032" y="601"/>
      <point x="1032" y="601"/>
      <point x="1047" y="567" type="qcurve" smooth="yes"/>
      <point x="1062" y="532"/>
      <point x="1080" y="491"/>
      <point x="1126" y="386" type="qcurve" smooth="yes"/>
      <point x="1170" y="284"/>
      <point x="1186" y="247"/>
      <point x="1202" y="212" type="qcurve" smooth="yes"/>
      <point x="1217" y="177"/>
      <point x="1217" y="177"/>
      <point x="1213" y="176" type="qcurve"/>
      <point x="1209" y="174"/>
      <point x="1209" y="174"/>
      <point x="1194" y="209" type="qcurve" smooth="yes"/>
      <point x="1179" y="244"/>
      <point x="1163" y="281"/>
      <point x="1119" y="382" type="qcurve" smooth="yes"/>
      <point x="1072" y="490"/>
      <point x="1055" y="529"/>
      <point x="1039" y="564" type="qcurve" smooth="yes"/>
      <point x="1025" y="598"/>
      <point x="1025" y="598"/>
    </contour>
    <contour>
      <point x="893" y="540" type="qcurve"/>
      <point x="896" y="542"/>
      <point x="896" y="542"/>
      <point x="911" y="508" type="qcurve" smooth="yes"/>
      <point x="926" y="473"/>
      <point x="944" y="432"/>
      <point x="990" y="326" type="qcurve" smooth="yes"/>
      <point x="1035" y="225"/>
      <point x="1051" y="188"/>
      <point x="1066" y="153" type="qcurve" smooth="yes"/>
      <point x="1081" y="118"/>
      <point x="1081" y="118"/>
      <point x="1077" y="117" type="qcurve"/>
      <point x="1074" y="115"/>
      <point x="1074" y="115"/>
      <point x="1059" y="150" type="qcurve" smooth="yes"/>
      <point x="1043" y="185"/>
      <point x="1027" y="222"/>
      <point x="983" y="323" type="qcurve" smooth="yes"/>
      <point x="936" y="430"/>
      <point x="919" y="470"/>
      <point x="904" y="505" type="qcurve" smooth="yes"/>
      <point x="889" y="538"/>
      <point x="889" y="538"/>
    </contour>
    <contour>
      <point x="969" y="735" type="qcurve" smooth="yes"/>
      <point x="973" y="737"/>
      <point x="973" y="737"/>
      <point x="988" y="703" type="qcurve" smooth="yes"/>
      <point x="1002" y="669"/>
      <point x="1002" y="669"/>
      <point x="999" y="667" type="qcurve"/>
      <point x="995" y="666"/>
      <point x="995" y="666"/>
      <point x="980" y="699" type="qcurve" smooth="yes"/>
      <point x="965" y="733"/>
      <point x="965" y="733"/>
    </contour>
    <contour>
      <point x="999" y="667" type="qcurve"/>
      <point x="1002" y="669"/>
      <point x="1002" y="669"/>
      <point x="1017" y="635" type="qcurve" smooth="yes"/>
      <point x="1032" y="601"/>
      <point x="1032" y="601"/>
      <point x="1028" y="599" type="qcurve"/>
      <point x="1025" y="598"/>
      <point x="1025" y="598"/>
      <point x="1010" y="632" type="qcurve" smooth="yes"/>
      <point x="995" y="666"/>
      <point x="995" y="666"/>
    </contour>
    <contour>
      <point x="833" y="676" type="qcurve"/>
      <point x="837" y="677"/>
      <point x="837" y="677"/>
      <point x="852" y="643" type="qcurve" smooth="yes"/>
      <point x="867" y="610"/>
      <point x="867" y="610"/>
      <point x="863" y="608" type="qcurve" smooth="yes"/>
      <point x="859" y="606"/>
      <point x="859" y="606"/>
      <point x="845" y="640" type="qcurve" smooth="yes"/>
      <point x="830" y="674"/>
      <point x="830" y="674"/>
    </contour>
    <contour>
      <point x="863" y="608" type="qcurve" smooth="yes"/>
      <point x="867" y="610"/>
      <point x="867" y="610"/>
      <point x="881" y="576" type="qcurve" smooth="yes"/>
      <point x="896" y="542"/>
      <point x="896" y="542"/>
      <point x="893" y="540" type="qcurve"/>
      <point x="889" y="538"/>
      <point x="889" y="538"/>
      <point x="874" y="572" type="qcurve" smooth="yes"/>
      <point x="859" y="606"/>
      <point x="859" y="606"/>
    </contour>
  </outline>
</glyph>
<glyph name="S" format="1">
  <advance width="812"/>
  <unicode hex="0053"/>
  <outline>
    <contour>
      <point x="280" y="691" type="qcurve"/>
      <point x="163" y="762"/>
      <point x="53" y="908"/>
      <point x="49" y="1025" type="qcurve" smooth="yes"/>
      <point x="49" y="1038"/>
      <point x="49" y="1038"/>
      <point x="53" y="1038" type="qcurve" smooth="yes"/>
      <point x="57" y="1038"/>
      <point x="57" y="1038"/>
      <point x="57" y="1028" type="qcurve" smooth="yes"/>
      <point x="61" y="896"/>
      <point x="201" y="746"/>
      <point x="284" y="698" type="qcurve" smooth="yes"/>
      <point x="307" y="686"/>
      <point x="307" y="686"/>
      <point x="305" y="682" type="qcurve"/>
      <point x="303" y="679"/>
      <point x="303" y="679"/>
    </contour>
    <contour>
      <point x="357" y="828" type="qcurve" smooth="yes"/>
      <point x="263" y="886"/>
      <point x="205" y="963"/>
      <point x="199" y="1028" type="qcurve"/>
      <point x="199" y="1038"/>
      <point x="199" y="1038"/>
      <point x="203" y="1038" type="qcurve" smooth="yes"/>
      <point x="207" y="1038"/>
      <point x="207" y="1038"/>
      <point x="207" y="1031" type="qcurve"/>
      <point x="211" y="969"/>
      <point x="271" y="889"/>
      <point x="362" y="834" type="qcurve" smooth="yes"/>
      <point x="385" y="821"/>
      <point x="385" y="821"/>
      <point x="383" y="817" type="qcurve"/>
      <point x="381" y="814"/>
      <point x="381" y="814"/>
    </contour>
    <contour>
      <point x="53" y="1058" type="qcurve" smooth="yes"/>
      <point x="49" y="1058"/>
      <point x="49" y="1058"/>
      <point x="50" y="1071" type="qcurve" smooth="yes"/>
      <point x="61" y="1212"/>
      <point x="279" y="1396"/>
      <point x="430" y="1407" type="qcurve" smooth="yes"/>
      <point x="452" y="1409"/>
      <point x="452" y="1409"/>
      <point x="452" y="1405" type="qcurve" smooth="yes"/>
      <point x="452" y="1401"/>
      <point x="452" y="1401"/>
      <point x="433" y="1399" type="qcurve" smooth="yes"/>
      <point x="286" y="1388"/>
      <point x="70" y="1213"/>
      <point x="58" y="1069" type="qcurve" smooth="yes"/>
      <point x="57" y="1058"/>
      <point x="57" y="1058"/>
    </contour>
    <contour>
      <point x="203" y="1058" type="qcurve" smooth="yes"/>
      <point x="199" y="1058"/>
      <point x="199" y="1058"/>
      <point x="199" y="1069" type="qcurve"/>
      <point x="203" y="1142"/>
      <point x="320" y="1257"/>
      <point x="433" y="1268" type="qcurve" smooth="yes"/>
      <point x="452" y="1269"/>
      <point x="452" y="1269"/>
      <point x="452" y="1264" type="qcurve" smooth="yes"/>
      <point x="452" y="1260"/>
      <point x="452" y="1260"/>
      <point x="440" y="1260" type="qcurve"/>
      <point x="343" y="1255"/>
      <point x="213" y="1150"/>
      <point x="207" y="1068" type="qcurve"/>
      <point x="207" y="1058"/>
      <point x="207" y="1058"/>
    </contour>
    <contour>
      <point x="348" y="98" type="qcurve"/>
      <point x="342" y="98"/>
      <point x="342" y="98"/>
      <point x="342" y="102" type="qcurve" smooth="yes"/>
      <point x="342" y="106"/>
      <point x="342" y="106"/>
      <point x="348" y="106" type="qcurve"/>
      <point x="466" y="114"/>
      <point x="622" y="238"/>
      <point x="626" y="341" type="qcurve" smooth="yes"/>
      <point x="626" y="348"/>
      <point x="626" y="348"/>
      <point x="630" y="348" type="qcurve" smooth="yes"/>
      <point x="635" y="348"/>
      <point x="635" y="348"/>
      <point x="634" y="337" type="qcurve"/>
      <point x="632" y="234"/>
      <point x="471" y="106"/>
    </contour>
    <contour>
      <point x="363" y="-38" type="qcurve" smooth="yes"/>
      <point x="342" y="-39"/>
      <point x="342" y="-39"/>
      <point x="342" y="-34" type="qcurve" smooth="yes"/>
      <point x="342" y="-30"/>
      <point x="342" y="-30"/>
      <point x="348" y="-30" type="qcurve" smooth="yes"/>
      <point x="523" y="-24"/>
      <point x="762" y="175"/>
      <point x="775" y="337" type="qcurve" smooth="yes"/>
      <point x="776" y="348"/>
      <point x="776" y="348"/>
      <point x="780" y="348" type="qcurve" smooth="yes"/>
      <point x="784" y="348"/>
      <point x="784" y="348"/>
      <point x="783" y="334" type="qcurve" smooth="yes"/>
      <point x="769" y="164"/>
      <point x="529" y="-31"/>
    </contour>
    <contour>
      <point x="631" y="379" type="qcurve" smooth="yes"/>
      <point x="626" y="379"/>
      <point x="626" y="379"/>
      <point x="625" y="393" type="qcurve"/>
      <point x="615" y="453"/>
      <point x="541" y="542"/>
      <point x="454" y="591" type="qcurve" smooth="yes"/>
      <point x="434" y="603"/>
      <point x="434" y="603"/>
      <point x="436" y="606" type="qcurve" smooth="yes"/>
      <point x="438" y="609"/>
      <point x="438" y="610"/>
      <point x="458" y="598" type="qcurve" smooth="yes"/>
      <point x="554" y="542"/>
      <point x="624" y="452"/>
      <point x="633" y="395" type="qcurve" smooth="yes"/>
      <point x="635" y="379"/>
      <point x="635" y="379"/>
    </contour>
    <contour>
      <point x="780" y="379" type="qcurve" smooth="yes"/>
      <point x="776" y="379"/>
      <point x="776" y="379"/>
      <point x="775" y="395" type="qcurve" smooth="yes"/>
      <point x="766" y="510"/>
      <point x="637" y="670"/>
      <point x="541" y="721" type="qcurve" smooth="yes"/>
      <point x="512" y="738"/>
      <point x="512" y="738"/>
      <point x="514" y="741" type="qcurve"/>
      <point x="516" y="745"/>
      <point x="516" y="745"/>
      <point x="546" y="728" type="qcurve" smooth="yes"/>
      <point x="648" y="674"/>
      <point x="777" y="504"/>
      <point x="783" y="399" type="qcurve" smooth="yes"/>
      <point x="784" y="379"/>
      <point x="784" y="379"/>
    </contour>
    <contour>
      <point x="53" y="1038" type="qcurve" smooth="yes"/>
      <point x="49" y="1038"/>
      <point x="49" y="1038"/>
      <point x="49" y="1043" type="qcurve" smooth="yes"/>
      <point x="49" y="1048"/>
      <point x="49" y="1048"/>
      <point x="53" y="1048" type="qcurve" smooth="yes"/>
      <point x="57" y="1048"/>
      <point x="57" y="1048"/>
      <point x="57" y="1043" type="qcurve" smooth="yes"/>
      <point x="57" y="1038"/>
      <point x="57" y="1038"/>
    </contour>
    <contour>
      <point x="53" y="1048" type="qcurve" smooth="yes"/>
      <point x="49" y="1048"/>
      <point x="49" y="1048"/>
      <point x="49" y="1053" type="qcurve" smooth="yes"/>
      <point x="49" y="1058"/>
      <point x="49" y="1058"/>
      <point x="53" y="1058" type="qcurve" smooth="yes"/>
      <point x="57" y="1058"/>
      <point x="57" y="1058"/>
      <point x="57" y="1053" type="qcurve" smooth="yes"/>
      <point x="57" y="1048"/>
      <point x="57" y="1048"/>
    </contour>
    <contour>
      <point x="203" y="1038" type="qcurve" smooth="yes"/>
      <point x="199" y="1038"/>
      <point x="199" y="1038"/>
      <point x="199" y="1043" type="qcurve" smooth="yes"/>
      <point x="199" y="1048"/>
      <point x="199" y="1048"/>
      <point x="203" y="1048" type="qcurve" smooth="yes"/>
      <point x="207" y="1048"/>
      <point x="207" y="1048"/>
      <point x="207" y="1043" type="qcurve" smooth="yes"/>
      <point x="207" y="1038"/>
      <point x="207" y="1038"/>
    </contour>
    <contour>
      <point x="203" y="1048" type="qcurve" smooth="yes"/>
      <point x="199" y="1048"/>
      <point x="199" y="1048"/>
      <point x="199" y="1053" type="qcurve" smooth="yes"/>
      <point x="199" y="1058"/>
      <point x="199" y="1058"/>
      <point x="203" y="1058" type="qcurve" smooth="yes"/>
      <point x="207" y="1058"/>
      <point x="207" y="1058"/>
      <point x="207" y="1053" type="qcurve" smooth="yes"/>
      <point x="207" y="1048"/>
      <point x="207" y="1048"/>
    </contour>
    <contour>
      <point x="250" y="-37" type="qcurve" smooth="yes"/>
      <point x="192" y="-32"/>
      <point x="192" y="-32"/>
      <point x="192" y="-28" type="qcurve" smooth="yes"/>
      <point x="192" y="-24"/>
      <point x="192" y="-24"/>
      <point x="249" y="-29" type="qcurve" smooth="yes"/>
      <point x="302" y="-31"/>
      <point x="302" y="-31"/>
      <point x="302" y="-35" type="qcurve" smooth="yes"/>
      <point x="302" y="-39"/>
      <point x="302" y="-39"/>
    </contour>
    <contour>
      <point x="249" y="101" type="qcurve" smooth="yes"/>
      <point x="192" y="107"/>
      <point x="192" y="107"/>
      <point x="192" y="111" type="qcurve" smooth="yes"/>
      <point x="192" y="115"/>
      <point x="192" y="115"/>
      <point x="250" y="109" type="qcurve" smooth="yes"/>
      <point x="302" y="106"/>
      <point x="302" y="106"/>
      <point x="302" y="102" type="qcurve" smooth="yes"/>
      <point x="302" y="98"/>
      <point x="302" y="98"/>
    </contour>
    <contour>
      <point x="311" y="-39" type="qcurve" smooth="yes"/>
      <point x="302" y="-39"/>
      <point x="302" y="-39"/>
      <point x="302" y="-35" type="qcurve" smooth="yes"/>
      <point x="302" y="-31"/>
      <point x="302" y="-31"/>
      <point x="312" y="-31" type="qcurve" smooth="yes"/>
      <point x="322" y="-31"/>
      <point x="322" y="-31"/>
      <point x="322" y="-35" type="qcurve" smooth="yes"/>
      <point x="322" y="-39"/>
      <point x="322" y="-39"/>
    </contour>
    <contour>
      <point x="312" y="98" type="qcurve" smooth="yes"/>
      <point x="302" y="98"/>
      <point x="302" y="98"/>
      <point x="302" y="102" type="qcurve" smooth="yes"/>
      <point x="302" y="106"/>
      <point x="302" y="106"/>
      <point x="312" y="106" type="qcurve" smooth="yes"/>
      <point x="322" y="106"/>
      <point x="322" y="106"/>
      <point x="322" y="102" type="qcurve" smooth="yes"/>
      <point x="322" y="98"/>
      <point x="322" y="98"/>
    </contour>
    <contour>
      <point x="332" y="-39" type="qcurve" smooth="yes"/>
      <point x="322" y="-39"/>
      <point x="322" y="-39"/>
      <point x="322" y="-35" type="qcurve" smooth="yes"/>
      <point x="322" y="-31"/>
      <point x="322" y="-31"/>
      <point x="332" y="-31" type="qcurve" smooth="yes"/>
      <point x="342" y="-31"/>
      <point x="342" y="-31"/>
      <point x="342" y="-35" type="qcurve" smooth="yes"/>
      <point x="342" y="-39"/>
      <point x="342" y="-39"/>
    </contour>
    <contour>
      <point x="332" y="98" type="qcurve" smooth="yes"/>
      <point x="322" y="98"/>
      <point x="322" y="98"/>
      <point x="322" y="102" type="qcurve" smooth="yes"/>
      <point x="322" y="106"/>
      <point x="322" y="106"/>
      <point x="332" y="106" type="qcurve" smooth="yes"/>
      <point x="342" y="106"/>
      <point x="342" y="106"/>
      <point x="342" y="102" type="qcurve" smooth="yes"/>
      <point x="342" y="98"/>
      <point x="342" y="98"/>
    </contour>
    <contour>
      <point x="462" y="1260" type="qcurve" smooth="yes"/>
      <point x="452" y="1260"/>
      <point x="452" y="1260"/>
      <point x="452" y="1264" type="qcurve" smooth="yes"/>
      <point x="452" y="1269"/>
      <point x="452" y="1269"/>
      <point x="462" y="1269" type="qcurve" smooth="yes"/>
      <point x="472" y="1269"/>
      <point x="472" y="1269"/>
      <point x="472" y="1264" type="qcurve" smooth="yes"/>
      <point x="472" y="1260"/>
      <point x="472" y="1260"/>
    </contour>
    <contour>
      <point x="462" y="1401" type="qcurve" smooth="yes"/>
      <point x="452" y="1401"/>
      <point x="452" y="1401"/>
      <point x="452" y="1405" type="qcurve" smooth="yes"/>
      <point x="452" y="1409"/>
      <point x="452" y="1409"/>
      <point x="462" y="1409" type="qcurve" smooth="yes"/>
      <point x="472" y="1409"/>
      <point x="472" y="1409"/>
      <point x="472" y="1405" type="qcurve" smooth="yes"/>
      <point x="472" y="1401"/>
      <point x="472" y="1401"/>
    </contour>
    <contour>
      <point x="482" y="1260" type="qcurve"/>
      <point x="472" y="1260"/>
      <point x="472" y="1260"/>
      <point x="472" y="1264" type="qcurve" smooth="yes"/>
      <point x="472" y="1269"/>
      <point x="472" y="1269"/>
      <point x="482" y="1269" type="qcurve"/>
      <point x="492" y="1268"/>
      <point x="492" y="1268"/>
      <point x="492" y="1264" type="qcurve" smooth="yes"/>
      <point x="492" y="1259"/>
      <point x="492" y="1259"/>
    </contour>
    <contour>
      <point x="482" y="1401" type="qcurve" smooth="yes"/>
      <point x="472" y="1401"/>
      <point x="472" y="1401"/>
      <point x="472" y="1405" type="qcurve" smooth="yes"/>
      <point x="472" y="1409"/>
      <point x="472" y="1409"/>
      <point x="483" y="1409" type="qcurve" smooth="yes"/>
      <point x="492" y="1409"/>
      <point x="492" y="1409"/>
      <point x="492" y="1405" type="qcurve" smooth="yes"/>
      <point x="492" y="1401"/>
      <point x="492" y="1401"/>
    </contour>
    <contour>
      <point x="521" y="1255" type="qcurve"/>
      <point x="492" y="1259"/>
      <point x="492" y="1259"/>
      <point x="492" y="1264" type="qcurve" smooth="yes"/>
      <point x="492" y="1268"/>
      <point x="492" y="1268"/>
      <point x="522" y="1263" type="qcurve"/>
      <point x="551" y="1255"/>
      <point x="551" y="1255"/>
      <point x="551" y="1251" type="qcurve" smooth="yes"/>
      <point x="551" y="1247"/>
      <point x="551" y="1247"/>
    </contour>
    <contour>
      <point x="522" y="1400" type="qcurve"/>
      <point x="492" y="1401"/>
      <point x="492" y="1401"/>
      <point x="492" y="1405" type="qcurve" smooth="yes"/>
      <point x="492" y="1409"/>
      <point x="492" y="1409"/>
      <point x="521" y="1408" type="qcurve"/>
      <point x="551" y="1404"/>
      <point x="551" y="1404"/>
      <point x="551" y="1400" type="qcurve" smooth="yes"/>
      <point x="551" y="1396"/>
      <point x="551" y="1396"/>
    </contour>
    <contour>
      <point x="631" y="348" type="qcurve" smooth="yes"/>
      <point x="626" y="348"/>
      <point x="626" y="348"/>
      <point x="626" y="356" type="qcurve" smooth="yes"/>
      <point x="626" y="363"/>
      <point x="626" y="363"/>
      <point x="631" y="363" type="qcurve" smooth="yes"/>
      <point x="635" y="363"/>
      <point x="635" y="363"/>
      <point x="635" y="356" type="qcurve" smooth="yes"/>
      <point x="635" y="348"/>
      <point x="635" y="348"/>
    </contour>
    <contour>
      <point x="631" y="363" type="qcurve" smooth="yes"/>
      <point x="626" y="363"/>
      <point x="626" y="363"/>
      <point x="626" y="371" type="qcurve" smooth="yes"/>
      <point x="626" y="379"/>
      <point x="626" y="379"/>
      <point x="631" y="379" type="qcurve" smooth="yes"/>
      <point x="635" y="379"/>
      <point x="635" y="379"/>
      <point x="635" y="371" type="qcurve" smooth="yes"/>
      <point x="635" y="363"/>
      <point x="635" y="363"/>
    </contour>
    <contour>
      <point x="780" y="348" type="qcurve" smooth="yes"/>
      <point x="776" y="348"/>
      <point x="776" y="348"/>
      <point x="776" y="356" type="qcurve" smooth="yes"/>
      <point x="776" y="363"/>
      <point x="776" y="363"/>
      <point x="780" y="363" type="qcurve" smooth="yes"/>
      <point x="784" y="363"/>
      <point x="784" y="363"/>
      <point x="784" y="356" type="qcurve" smooth="yes"/>
      <point x="784" y="348"/>
      <point x="784" y="348"/>
    </contour>
    <contour>
      <point x="780" y="363" type="qcurve" smooth="yes"/>
      <point x="776" y="363"/>
      <point x="776" y="363"/>
      <point x="776" y="371" type="qcurve" smooth="yes"/>
      <point x="776" y="379"/>
      <point x="776" y="379"/>
      <point x="780" y="379" type="qcurve" smooth="yes"/>
      <point x="784" y="379"/>
      <point x="784" y="379"/>
      <point x="784" y="371" type="qcurve" smooth="yes"/>
      <point x="784" y="363"/>
      <point x="784" y="363"/>
    </contour>
    <contour>
      <point x="30" y="7" type="qcurve"/>
      <point x="28" y="8"/>
      <point x="28" y="8"/>
      <point x="28" y="51" type="qcurve" smooth="yes"/>
      <point x="28" y="90"/>
      <point x="28" y="90"/>
      <point x="32" y="88" type="qcurve"/>
      <point x="35" y="86"/>
      <point x="35" y="86"/>
      <point x="35" y="48" type="qcurve" smooth="yes"/>
      <point x="35" y="5"/>
      <point x="35" y="5"/>
    </contour>
    <contour>
      <point x="32" y="88" type="qcurve"/>
      <point x="28" y="90"/>
      <point x="28" y="90"/>
      <point x="28" y="139" type="qcurve" smooth="yes"/>
      <point x="28" y="174"/>
      <point x="28" y="174"/>
      <point x="32" y="172" type="qcurve"/>
      <point x="35" y="170"/>
      <point x="35" y="170"/>
      <point x="35" y="130" type="qcurve" smooth="yes"/>
      <point x="35" y="86"/>
      <point x="35" y="86"/>
    </contour>
    <contour>
      <point x="110" y="-19" type="qcurve"/>
      <point x="35" y="5"/>
      <point x="35" y="5"/>
      <point x="35" y="10" type="qcurve" smooth="yes"/>
      <point x="35" y="14"/>
      <point x="35" y="14"/>
      <point x="110" y="-10" type="qcurve"/>
      <point x="192" y="-23"/>
      <point x="192" y="-23"/>
      <point x="192" y="-27" type="qcurve" smooth="yes"/>
      <point x="192" y="-32"/>
      <point x="192" y="-32"/>
    </contour>
    <contour>
      <point x="110" y="127" type="qcurve"/>
      <point x="35" y="161"/>
      <point x="35" y="161"/>
      <point x="35" y="165" type="qcurve" smooth="yes"/>
      <point x="35" y="170"/>
      <point x="35" y="170"/>
      <point x="110" y="135" type="qcurve"/>
      <point x="192" y="115"/>
      <point x="192" y="115"/>
      <point x="192" y="111" type="qcurve" smooth="yes"/>
      <point x="192" y="107"/>
      <point x="192" y="107"/>
    </contour>
    <contour>
      <point x="633" y="1215" type="qcurve"/>
      <point x="551" y="1247"/>
      <point x="551" y="1247"/>
      <point x="551" y="1251" type="qcurve" smooth="yes"/>
      <point x="551" y="1255"/>
      <point x="551" y="1255"/>
      <point x="633" y="1223" type="qcurve"/>
      <point x="708" y="1180"/>
      <point x="708" y="1180"/>
      <point x="708" y="1176" type="qcurve" smooth="yes"/>
      <point x="708" y="1171"/>
      <point x="708" y="1171"/>
    </contour>
    <contour>
      <point x="633" y="1373" type="qcurve"/>
      <point x="551" y="1395"/>
      <point x="551" y="1395"/>
      <point x="551" y="1399" type="qcurve" smooth="yes"/>
      <point x="551" y="1404"/>
      <point x="551" y="1404"/>
      <point x="633" y="1382" type="qcurve"/>
      <point x="708" y="1351"/>
      <point x="708" y="1351"/>
      <point x="708" y="1346" type="qcurve" smooth="yes"/>
      <point x="708" y="1342"/>
      <point x="708" y="1342"/>
    </contour>
    <contour>
      <point x="711" y="1169" type="qcurve"/>
      <point x="708" y="1171"/>
      <point x="708" y="1171"/>
      <point x="708" y="1225" type="qcurve" smooth="yes"/>
      <point x="708" y="1266"/>
      <point x="708" y="1266"/>
      <point x="711" y="1264" type="qcurve"/>
      <point x="715" y="1262"/>
      <point x="715" y="1262"/>
      <point x="715" y="1224" type="qcurve" smooth="yes"/>
      <point x="715" y="1166"/>
      <point x="715" y="1166"/>
    </contour>
    <contour>
      <point x="711" y="1264" type="qcurve"/>
      <point x="708" y="1266"/>
      <point x="708" y="1266"/>
      <point x="708" y="1312" type="qcurve" smooth="yes"/>
      <point x="708" y="1351"/>
      <point x="708" y="1351"/>
      <point x="712" y="1349" type="qcurve"/>
      <point x="715" y="1347"/>
      <point x="715" y="1347"/>
      <point x="715" y="1309" type="qcurve" smooth="yes"/>
      <point x="715" y="1262"/>
      <point x="715" y="1262"/>
    </contour>
    <contour>
      <point x="436" y="607" type="qcurve"/>
      <point x="434" y="603"/>
      <point x="434" y="603"/>
      <point x="402" y="622" type="qcurve" smooth="yes"/>
      <point x="369" y="641"/>
      <point x="369" y="641"/>
      <point x="371" y="645" type="qcurve"/>
      <point x="373" y="648"/>
      <point x="373" y="648"/>
      <point x="406" y="629" type="qcurve" smooth="yes"/>
      <point x="438" y="610"/>
      <point x="438" y="610"/>
    </contour>
    <contour>
      <point x="371" y="645" type="qcurve"/>
      <point x="369" y="641"/>
      <point x="369" y="641"/>
      <point x="336" y="660" type="qcurve" smooth="yes"/>
      <point x="303" y="679"/>
      <point x="303" y="679"/>
      <point x="305" y="683" type="qcurve"/>
      <point x="307" y="686"/>
      <point x="307" y="686"/>
      <point x="340" y="667" type="qcurve" smooth="yes"/>
      <point x="373" y="648"/>
      <point x="373" y="648"/>
    </contour>
    <contour>
      <point x="514" y="742" type="qcurve"/>
      <point x="512" y="738"/>
      <point x="512" y="738"/>
      <point x="480" y="757" type="qcurve" smooth="yes"/>
      <point x="447" y="776"/>
      <point x="447" y="776"/>
      <point x="449" y="780" type="qcurve"/>
      <point x="451" y="783"/>
      <point x="451" y="783"/>
      <point x="484" y="764" type="qcurve" smooth="yes"/>
      <point x="516" y="745"/>
      <point x="516" y="745"/>
    </contour>
    <contour>
      <point x="449" y="780" type="qcurve"/>
      <point x="447" y="776"/>
      <point x="447" y="776"/>
      <point x="414" y="795" type="qcurve" smooth="yes"/>
      <point x="381" y="814"/>
      <point x="381" y="814"/>
      <point x="383" y="818" type="qcurve"/>
      <point x="385" y="821"/>
      <point x="385" y="821"/>
      <point x="418" y="802" type="qcurve" smooth="yes"/>
      <point x="451" y="783"/>
      <point x="451" y="783"/>
    </contour>
  </outline>
</glyph>
<glyph name="W" format="1">
  <advance width="1636"/>
  <unicode hex="0057"/>
  <outline>
    <contour>
      <point x="413" y="152" type="qcurve" smooth="yes"/>
      <point x="408" y="152"/>
      <point x="408" y="152"/>
      <point x="396" y="186" type="qcurve" smooth="yes"/>
      <point x="381" y="228"/>
      <point x="300" y="459"/>
      <point x="255" y="587" type="qcurve" smooth="yes"/>
      <point x="242" y="623"/>
      <point x="242" y="623"/>
      <point x="246" y="624" type="qcurve"/>
      <point x="250" y="626"/>
      <point x="250" y="627"/>
      <point x="262" y="591" type="qcurve" smooth="yes"/>
      <point x="308" y="462"/>
      <point x="390" y="230"/>
      <point x="404" y="188" type="qcurve" smooth="yes"/>
      <point x="417" y="152"/>
      <point x="417" y="152"/>
    </contour>
    <contour>
      <point x="511" y="296" type="qcurve" smooth="yes"/>
      <point x="509" y="286"/>
      <point x="509" y="286"/>
      <point x="507" y="292" type="qcurve" smooth="yes"/>
      <point x="490" y="346"/>
      <point x="438" y="506"/>
      <point x="394" y="635" type="qcurve" smooth="yes"/>
      <point x="382" y="670"/>
      <point x="382" y="670"/>
      <point x="386" y="671" type="qcurve" smooth="yes"/>
      <point x="390" y="672"/>
      <point x="390" y="672"/>
      <point x="401" y="638" type="qcurve" smooth="yes"/>
      <point x="445" y="508"/>
      <point x="497" y="349"/>
      <point x="501" y="336" type="qcurve" smooth="yes"/>
      <point x="512" y="302"/>
      <point x="512" y="302"/>
    </contour>
    <contour>
      <point x="611" y="152" type="qcurve" smooth="yes"/>
      <point x="606" y="152"/>
      <point x="606" y="152"/>
      <point x="620" y="190" type="qcurve" smooth="yes"/>
      <point x="635" y="230"/>
      <point x="690" y="386"/>
      <point x="712" y="451" type="qcurve" smooth="yes"/>
      <point x="724" y="489"/>
      <point x="724" y="489"/>
      <point x="729" y="488" type="qcurve" smooth="yes"/>
      <point x="733" y="487"/>
      <point x="733" y="487"/>
      <point x="720" y="449" type="qcurve" smooth="yes"/>
      <point x="697" y="382"/>
      <point x="643" y="228"/>
      <point x="628" y="186" type="qcurve" smooth="yes"/>
      <point x="616" y="152"/>
      <point x="616" y="152"/>
    </contour>
    <contour>
      <point x="513" y="296" type="qcurve" smooth="yes"/>
      <point x="512" y="302"/>
      <point x="512" y="302"/>
      <point x="524" y="335" type="qcurve" smooth="yes"/>
      <point x="529" y="349"/>
      <point x="555" y="423"/>
      <point x="580" y="497" type="qcurve" smooth="yes"/>
      <point x="592" y="533"/>
      <point x="592" y="533"/>
      <point x="595" y="532" type="qcurve"/>
      <point x="599" y="531"/>
      <point x="599" y="531"/>
      <point x="588" y="496" type="qcurve" smooth="yes"/>
      <point x="563" y="421"/>
      <point x="536" y="346"/>
      <point x="517" y="292" type="qcurve" smooth="yes"/>
      <point x="515" y="286"/>
      <point x="515" y="286"/>
    </contour>
    <contour>
      <point x="643" y="671" type="qcurve"/>
      <point x="639" y="673"/>
      <point x="639" y="673"/>
      <point x="651" y="709" type="qcurve" smooth="yes"/>
      <point x="673" y="775"/>
      <point x="691" y="829"/>
      <point x="705" y="871" type="qcurve" smooth="yes"/>
      <point x="717" y="905"/>
      <point x="717" y="905"/>
      <point x="722" y="905" type="qcurve" smooth="yes"/>
      <point x="726" y="905"/>
      <point x="726" y="905"/>
      <point x="713" y="868" type="qcurve" smooth="yes"/>
      <point x="699" y="827"/>
      <point x="681" y="773"/>
      <point x="659" y="707" type="qcurve" smooth="yes"/>
      <point x="647" y="670"/>
      <point x="647" y="670"/>
    </contour>
    <contour>
      <point x="774" y="627" type="qcurve"/>
      <point x="771" y="628"/>
      <point x="771" y="628"/>
      <point x="784" y="665" type="qcurve" smooth="yes"/>
      <point x="794" y="693"/>
      <point x="809" y="739"/>
      <point x="815" y="758" type="qcurve" smooth="yes"/>
      <point x="819" y="769"/>
      <point x="819" y="769"/>
      <point x="820" y="763" type="qcurve" smooth="yes"/>
      <point x="821" y="755"/>
      <point x="821" y="755"/>
      <point x="811" y="721" type="qcurve" smooth="yes"/>
      <point x="808" y="712"/>
      <point x="801" y="690"/>
      <point x="792" y="663" type="qcurve" smooth="yes"/>
      <point x="779" y="625"/>
      <point x="779" y="625"/>
    </contour>
    <contour>
      <point x="1004" y="674" type="qcurve" smooth="yes"/>
      <point x="1000" y="673"/>
      <point x="1000" y="673"/>
      <point x="988" y="709" type="qcurve" smooth="yes"/>
      <point x="966" y="769"/>
      <point x="945" y="827"/>
      <point x="929" y="871" type="qcurve" smooth="yes"/>
      <point x="917" y="905"/>
      <point x="917" y="905"/>
      <point x="921" y="905" type="qcurve" smooth="yes"/>
      <point x="925" y="905"/>
      <point x="925" y="905"/>
      <point x="937" y="871" type="qcurve" smooth="yes"/>
      <point x="952" y="829"/>
      <point x="972" y="776"/>
      <point x="996" y="710" type="qcurve" smooth="yes"/>
      <point x="1008" y="675"/>
      <point x="1008" y="675"/>
    </contour>
    <contour>
      <point x="864" y="626" type="qcurve"/>
      <point x="860" y="625"/>
      <point x="860" y="625"/>
      <point x="848" y="662" type="qcurve" smooth="yes"/>
      <point x="840" y="690"/>
      <point x="834" y="711"/>
      <point x="831" y="721" type="qcurve" smooth="yes"/>
      <point x="821" y="755"/>
      <point x="821" y="755"/>
      <point x="822" y="763" type="qcurve" smooth="yes"/>
      <point x="823" y="769"/>
      <point x="823" y="769"/>
      <point x="827" y="758" type="qcurve" smooth="yes"/>
      <point x="833" y="739"/>
      <point x="847" y="693"/>
      <point x="855" y="667" type="qcurve" smooth="yes"/>
      <point x="868" y="628"/>
      <point x="868" y="628"/>
    </contour>
    <contour>
      <point x="1031" y="152" type="qcurve" smooth="yes"/>
      <point x="1026" y="152"/>
      <point x="1026" y="152"/>
      <point x="1014" y="186" type="qcurve" smooth="yes"/>
      <point x="999" y="228"/>
      <point x="943" y="383"/>
      <point x="920" y="450" type="qcurve" smooth="yes"/>
      <point x="907" y="485"/>
      <point x="907" y="485"/>
      <point x="911" y="487" type="qcurve"/>
      <point x="915" y="488"/>
      <point x="915" y="488"/>
      <point x="928" y="452" type="qcurve" smooth="yes"/>
      <point x="951" y="386"/>
      <point x="1006" y="230"/>
      <point x="1021" y="189" type="qcurve" smooth="yes"/>
      <point x="1035" y="152"/>
      <point x="1035" y="152"/>
    </contour>
    <contour>
      <point x="1129" y="295" type="qcurve" smooth="yes"/>
      <point x="1127" y="283"/>
      <point x="1127" y="283"/>
      <point x="1123" y="297" type="qcurve" smooth="yes"/>
      <point x="1109" y="346"/>
      <point x="1084" y="421"/>
      <point x="1059" y="497" type="qcurve" smooth="yes"/>
      <point x="1047" y="533"/>
      <point x="1047" y="533"/>
      <point x="1051" y="534" type="qcurve" smooth="yes"/>
      <point x="1055" y="535"/>
      <point x="1055" y="535"/>
      <point x="1067" y="499" type="qcurve" smooth="yes"/>
      <point x="1091" y="423"/>
      <point x="1116" y="349"/>
      <point x="1119" y="336" type="qcurve"/>
      <point x="1130" y="302"/>
      <point x="1130" y="302"/>
    </contour>
    <contour>
      <point x="1229" y="152" type="qcurve" smooth="yes"/>
      <point x="1225" y="152"/>
      <point x="1225" y="152"/>
      <point x="1238" y="190" type="qcurve" smooth="yes"/>
      <point x="1252" y="230"/>
      <point x="1328" y="464"/>
      <point x="1373" y="587" type="qcurve" smooth="yes"/>
      <point x="1385" y="622"/>
      <point x="1385" y="622"/>
      <point x="1389" y="620" type="qcurve"/>
      <point x="1393" y="619"/>
      <point x="1393" y="619"/>
      <point x="1380" y="583" type="qcurve" smooth="yes"/>
      <point x="1335" y="458"/>
      <point x="1261" y="228"/>
      <point x="1246" y="186" type="qcurve" smooth="yes"/>
      <point x="1234" y="152"/>
      <point x="1234" y="152"/>
    </contour>
    <contour>
      <point x="1131" y="295" type="qcurve" smooth="yes"/>
      <point x="1130" y="302"/>
      <point x="1130" y="302"/>
      <point x="1141" y="336" type="qcurve" smooth="yes"/>
      <point x="1145" y="349"/>
      <point x="1197" y="505"/>
      <point x="1241" y="631" type="qcurve" smooth="yes"/>
      <point x="1253" y="667"/>
      <point x="1253" y="667"/>
      <point x="1256" y="666" type="qcurve"/>
      <point x="1260" y="664"/>
      <point x="1260" y="664"/>
      <point x="1248" y="628" type="qcurve" smooth="yes"/>
      <point x="1205" y="505"/>
      <point x="1152" y="346"/>
      <point x="1136" y="297" type="qcurve"/>
      <point x="1133" y="283"/>
      <point x="1133" y="283"/>
    </contour>
    <contour>
      <point x="1109" y="0" type="qcurve" smooth="yes"/>
      <point x="1082" y="0"/>
      <point x="1082" y="0"/>
      <point x="1081" y="3" type="qcurve"/>
      <point x="1079" y="8"/>
      <point x="1079" y="8"/>
      <point x="1104" y="8" type="qcurve" smooth="yes"/>
      <point x="1130" y="8"/>
      <point x="1130" y="8"/>
      <point x="1130" y="4" type="qcurve" smooth="yes"/>
      <point x="1130" y="0"/>
      <point x="1130" y="0"/>
    </contour>
    <contour>
      <point x="1083" y="8" type="qcurve" smooth="yes"/>
      <point x="1079" y="8"/>
      <point x="1079" y="8"/>
      <point x="1039" y="115" type="qcurve" smooth="yes"/>
      <point x="1026" y="152"/>
      <point x="1026" y="152"/>
      <point x="1031" y="152" type="qcurve" smooth="yes"/>
      <point x="1036" y="152"/>
      <point x="1036" y="152"/>
      <point x="1048" y="118" type="qcurve" smooth="yes"/>
      <point x="1088" y="8"/>
      <point x="1088" y="8"/>
    </contour>
    <contour>
      <point x="1128" y="283" type="qcurve" smooth="yes"/>
      <point x="1127" y="286"/>
      <point x="1127" y="286"/>
      <point x="1129" y="296" type="qcurve" smooth="yes"/>
      <point x="1130" y="302"/>
      <point x="1130" y="302"/>
      <point x="1131" y="296" type="qcurve" smooth="yes"/>
      <point x="1133" y="286"/>
      <point x="1133" y="286"/>
      <point x="1132" y="283" type="qcurve" smooth="yes"/>
      <point x="1130" y="277"/>
      <point x="1130" y="277"/>
    </contour>
    <contour>
      <point x="1151" y="0" type="qcurve" smooth="yes"/>
      <point x="1130" y="0"/>
      <point x="1130" y="0"/>
      <point x="1130" y="4" type="qcurve" smooth="yes"/>
      <point x="1130" y="8"/>
      <point x="1130" y="8"/>
      <point x="1156" y="8" type="qcurve" smooth="yes"/>
      <point x="1181" y="8"/>
      <point x="1181" y="8"/>
      <point x="1179" y="3" type="qcurve"/>
      <point x="1178" y="0"/>
      <point x="1178" y="0"/>
    </contour>
    <contour>
      <point x="1176" y="8" type="qcurve" smooth="yes"/>
      <point x="1172" y="8"/>
      <point x="1172" y="8"/>
      <point x="1213" y="118" type="qcurve" smooth="yes"/>
      <point x="1225" y="152"/>
      <point x="1225" y="152"/>
      <point x="1230" y="152" type="qcurve" smooth="yes"/>
      <point x="1234" y="152"/>
      <point x="1234" y="152"/>
      <point x="1221" y="115" type="qcurve" smooth="yes"/>
      <point x="1181" y="8"/>
      <point x="1181" y="8"/>
    </contour>
    <contour>
      <point x="491" y="0" type="qcurve" smooth="yes"/>
      <point x="464" y="0"/>
      <point x="464" y="0"/>
      <point x="463" y="3" type="qcurve"/>
      <point x="461" y="8"/>
      <point x="461" y="8"/>
      <point x="486" y="8" type="qcurve" smooth="yes"/>
      <point x="512" y="8"/>
      <point x="512" y="8"/>
      <point x="512" y="4" type="qcurve" smooth="yes"/>
      <point x="512" y="0"/>
      <point x="512" y="0"/>
    </contour>
    <contour>
      <point x="465" y="8" type="qcurve" smooth="yes"/>
      <point x="461" y="8"/>
      <point x="461" y="8"/>
      <point x="421" y="115" type="qcurve" smooth="yes"/>
      <point x="408" y="152"/>
      <point x="408" y="152"/>
      <point x="413" y="152" type="qcurve" smooth="yes"/>
      <point x="418" y="152"/>
      <point x="418" y="152"/>
      <point x="430" y="118" type="qcurve" smooth="yes"/>
      <point x="470" y="8"/>
      <point x="470" y="8"/>
    </contour>
    <contour>
      <point x="510" y="283" type="qcurve" smooth="yes"/>
      <point x="509" y="286"/>
      <point x="509" y="286"/>
      <point x="511" y="296" type="qcurve" smooth="yes"/>
      <point x="512" y="302"/>
      <point x="512" y="302"/>
      <point x="513" y="296" type="qcurve" smooth="yes"/>
      <point x="515" y="286"/>
      <point x="515" y="286"/>
      <point x="514" y="283" type="qcurve" smooth="yes"/>
      <point x="512" y="277"/>
      <point x="512" y="277"/>
    </contour>
    <contour>
      <point x="533" y="0" type="qcurve" smooth="yes"/>
      <point x="512" y="0"/>
      <point x="512" y="0"/>
      <point x="512" y="4" type="qcurve" smooth="yes"/>
      <point x="512" y="8"/>
      <point x="512" y="8"/>
      <point x="538" y="8" type="qcurve" smooth="yes"/>
      <point x="563" y="8"/>
      <point x="563" y="8"/>
      <point x="561" y="3" type="qcurve"/>
      <point x="560" y="0"/>
      <point x="560" y="0"/>
    </contour>
    <contour>
      <point x="558" y="8" type="qcurve" smooth="yes"/>
      <point x="554" y="8"/>
      <point x="554" y="8"/>
      <point x="595" y="118" type="qcurve" smooth="yes"/>
      <point x="607" y="152"/>
      <point x="607" y="152"/>
      <point x="612" y="152" type="qcurve" smooth="yes"/>
      <point x="616" y="152"/>
      <point x="616" y="152"/>
      <point x="603" y="115" type="qcurve" smooth="yes"/>
      <point x="563" y="8"/>
      <point x="563" y="8"/>
    </contour>
    <contour>
      <point x="722" y="905" type="qcurve" smooth="yes"/>
      <point x="717" y="905"/>
      <point x="717" y="905"/>
      <point x="730" y="942" type="qcurve" smooth="yes"/>
      <point x="770" y="1049"/>
      <point x="770" y="1049"/>
      <point x="774" y="1049" type="qcurve" smooth="yes"/>
      <point x="779" y="1049"/>
      <point x="779" y="1049"/>
      <point x="739" y="939" type="qcurve" smooth="yes"/>
      <point x="727" y="905"/>
      <point x="727" y="905"/>
    </contour>
    <contour>
      <point x="795" y="1049" type="qcurve" smooth="yes"/>
      <point x="770" y="1049"/>
      <point x="770" y="1049"/>
      <point x="772" y="1054" type="qcurve"/>
      <point x="773" y="1057"/>
      <point x="773" y="1057"/>
      <point x="800" y="1057" type="qcurve" smooth="yes"/>
      <point x="821" y="1057"/>
      <point x="821" y="1057"/>
      <point x="821" y="1053" type="qcurve" smooth="yes"/>
      <point x="821" y="1049"/>
      <point x="821" y="1049"/>
    </contour>
    <contour>
      <point x="820" y="761" type="qcurve" smooth="yes"/>
      <point x="818" y="772"/>
      <point x="818" y="772"/>
      <point x="819" y="775" type="qcurve"/>
      <point x="821" y="780"/>
      <point x="821" y="780"/>
      <point x="823" y="775" type="qcurve"/>
      <point x="824" y="772"/>
      <point x="824" y="772"/>
      <point x="822" y="761" type="qcurve" smooth="yes"/>
      <point x="821" y="755"/>
      <point x="821" y="755"/>
    </contour>
    <contour>
      <point x="921" y="905" type="qcurve" smooth="yes"/>
      <point x="916" y="905"/>
      <point x="916" y="905"/>
      <point x="904" y="939" type="qcurve" smooth="yes"/>
      <point x="863" y="1049"/>
      <point x="863" y="1049"/>
      <point x="867" y="1049" type="qcurve" smooth="yes"/>
      <point x="872" y="1049"/>
      <point x="872" y="1049"/>
      <point x="912" y="942" type="qcurve" smooth="yes"/>
      <point x="925" y="905"/>
      <point x="925" y="905"/>
    </contour>
    <contour>
      <point x="847" y="1049" type="qcurve" smooth="yes"/>
      <point x="821" y="1049"/>
      <point x="821" y="1049"/>
      <point x="821" y="1053" type="qcurve" smooth="yes"/>
      <point x="821" y="1057"/>
      <point x="821" y="1057"/>
      <point x="842" y="1057" type="qcurve" smooth="yes"/>
      <point x="869" y="1057"/>
      <point x="869" y="1057"/>
      <point x="870" y="1054" type="qcurve"/>
      <point x="872" y="1049"/>
      <point x="872" y="1049"/>
    </contour>
    <contour>
      <point x="50" y="1201" type="qcurve"/>
      <point x="47" y="1200"/>
      <point x="47" y="1200"/>
      <point x="23" y="1270" type="qcurve" smooth="yes"/>
      <point x="2" y="1333"/>
      <point x="2" y="1333"/>
      <point x="5" y="1334" type="qcurve"/>
      <point x="9" y="1335"/>
      <point x="9" y="1335"/>
      <point x="30" y="1273" type="qcurve" smooth="yes"/>
      <point x="54" y="1203"/>
      <point x="54" y="1203"/>
    </contour>
    <contour>
      <point x="39" y="1345" type="qcurve" smooth="yes"/>
      <point x="2" y="1333"/>
      <point x="2" y="1333"/>
      <point x="0" y="1336" type="qcurve"/>
      <point x="-1" y="1340"/>
      <point x="-1" y="1340"/>
      <point x="36" y="1353" type="qcurve" smooth="yes"/>
      <point x="73" y="1365"/>
      <point x="73" y="1365"/>
      <point x="74" y="1361" type="qcurve"/>
      <point x="76" y="1358"/>
      <point x="76" y="1358"/>
    </contour>
    <contour>
      <point x="191" y="1249" type="qcurve"/>
      <point x="187" y="1247"/>
      <point x="187" y="1247"/>
      <point x="163" y="1318" type="qcurve" smooth="yes"/>
      <point x="142" y="1380"/>
      <point x="142" y="1380"/>
      <point x="146" y="1381" type="qcurve"/>
      <point x="149" y="1383"/>
      <point x="149" y="1383"/>
      <point x="171" y="1320" type="qcurve" smooth="yes"/>
      <point x="194" y="1250"/>
      <point x="194" y="1250"/>
    </contour>
    <contour>
      <point x="112" y="1370" type="qcurve" smooth="yes"/>
      <point x="76" y="1358"/>
      <point x="76" y="1358"/>
      <point x="74" y="1361" type="qcurve"/>
      <point x="73" y="1365"/>
      <point x="73" y="1365"/>
      <point x="110" y="1378" type="qcurve" smooth="yes"/>
      <point x="147" y="1390"/>
      <point x="147" y="1390"/>
      <point x="148" y="1386" type="qcurve"/>
      <point x="149" y="1383"/>
      <point x="149" y="1383"/>
    </contour>
    <contour>
      <point x="198" y="764" type="qcurve"/>
      <point x="195" y="762"/>
      <point x="195" y="762"/>
      <point x="183" y="797" type="qcurve" smooth="yes"/>
      <point x="171" y="833"/>
      <point x="156" y="876"/>
      <point x="119" y="985" type="qcurve" smooth="yes"/>
      <point x="84" y="1090"/>
      <point x="71" y="1128"/>
      <point x="59" y="1164" type="qcurve" smooth="yes"/>
      <point x="47" y="1200"/>
      <point x="47" y="1200"/>
      <point x="50" y="1201" type="qcurve"/>
      <point x="54" y="1203"/>
      <point x="54" y="1203"/>
      <point x="66" y="1167" type="qcurve" smooth="yes"/>
      <point x="79" y="1131"/>
      <point x="92" y="1092"/>
      <point x="127" y="988" type="qcurve" smooth="yes"/>
      <point x="164" y="877"/>
      <point x="178" y="836"/>
      <point x="190" y="800" type="qcurve" smooth="yes"/>
      <point x="202" y="765"/>
      <point x="202" y="765"/>
    </contour>
    <contour>
      <point x="339" y="811" type="qcurve"/>
      <point x="335" y="810"/>
      <point x="335" y="810"/>
      <point x="323" y="845" type="qcurve" smooth="yes"/>
      <point x="311" y="881"/>
      <point x="296" y="924"/>
      <point x="260" y="1032" type="qcurve" smooth="yes"/>
      <point x="224" y="1138"/>
      <point x="211" y="1175"/>
      <point x="199" y="1211" type="qcurve" smooth="yes"/>
      <point x="187" y="1247"/>
      <point x="187" y="1247"/>
      <point x="191" y="1249" type="qcurve"/>
      <point x="194" y="1250"/>
      <point x="194" y="1250"/>
      <point x="207" y="1214" type="qcurve" smooth="yes"/>
      <point x="219" y="1178"/>
      <point x="232" y="1139"/>
      <point x="267" y="1035" type="qcurve" smooth="yes"/>
      <point x="305" y="924"/>
      <point x="318" y="883"/>
      <point x="331" y="847" type="qcurve" smooth="yes"/>
      <point x="342" y="812"/>
      <point x="342" y="812"/>
    </contour>
    <contour>
      <point x="246" y="624" type="qcurve"/>
      <point x="242" y="622"/>
      <point x="242" y="622"/>
      <point x="230" y="657" type="qcurve" smooth="yes"/>
      <point x="218" y="692"/>
      <point x="218" y="692"/>
      <point x="222" y="694" type="qcurve"/>
      <point x="226" y="695"/>
      <point x="226" y="695"/>
      <point x="238" y="660" type="qcurve" smooth="yes"/>
      <point x="250" y="625"/>
      <point x="250" y="625"/>
    </contour>
    <contour>
      <point x="222" y="694" type="qcurve"/>
      <point x="218" y="692"/>
      <point x="218" y="692"/>
      <point x="207" y="727" type="qcurve" smooth="yes"/>
      <point x="195" y="762"/>
      <point x="195" y="762"/>
      <point x="198" y="764" type="qcurve"/>
      <point x="202" y="765"/>
      <point x="202" y="765"/>
      <point x="214" y="730" type="qcurve" smooth="yes"/>
      <point x="226" y="695"/>
      <point x="226" y="695"/>
    </contour>
    <contour>
      <point x="386" y="671" type="qcurve" smooth="yes"/>
      <point x="382" y="670"/>
      <point x="382" y="670"/>
      <point x="370" y="705" type="qcurve" smooth="yes"/>
      <point x="359" y="740"/>
      <point x="359" y="740"/>
      <point x="362" y="741" type="qcurve"/>
      <point x="366" y="742"/>
      <point x="366" y="742"/>
      <point x="378" y="707" type="qcurve" smooth="yes"/>
      <point x="390" y="672"/>
      <point x="390" y="672"/>
    </contour>
    <contour>
      <point x="362" y="741" type="qcurve"/>
      <point x="359" y="740"/>
      <point x="359" y="740"/>
      <point x="347" y="775" type="qcurve" smooth="yes"/>
      <point x="335" y="810"/>
      <point x="335" y="810"/>
      <point x="339" y="811" type="qcurve"/>
      <point x="342" y="812"/>
      <point x="342" y="812"/>
      <point x="354" y="777" type="qcurve" smooth="yes"/>
      <point x="366" y="742"/>
      <point x="366" y="742"/>
    </contour>
    <contour>
      <point x="1452" y="1242" type="qcurve"/>
      <point x="1448" y="1243"/>
      <point x="1448" y="1243"/>
      <point x="1472" y="1314" type="qcurve" smooth="yes"/>
      <point x="1493" y="1376"/>
      <point x="1493" y="1376"/>
      <point x="1497" y="1375" type="qcurve"/>
      <point x="1500" y="1374"/>
      <point x="1500" y="1374"/>
      <point x="1479" y="1311" type="qcurve" smooth="yes"/>
      <point x="1455" y="1241"/>
      <point x="1455" y="1241"/>
    </contour>
    <contour>
      <point x="1528" y="1364" type="qcurve" smooth="yes"/>
      <point x="1493" y="1376"/>
      <point x="1493" y="1376"/>
      <point x="1494" y="1380" type="qcurve" smooth="yes"/>
      <point x="1495" y="1384"/>
      <point x="1495" y="1384"/>
      <point x="1530" y="1372" type="qcurve" smooth="yes"/>
      <point x="1565" y="1360"/>
      <point x="1565" y="1360"/>
      <point x="1564" y="1356" type="qcurve" smooth="yes"/>
      <point x="1563" y="1352"/>
      <point x="1563" y="1352"/>
    </contour>
    <contour>
      <point x="1584" y="1197" type="qcurve"/>
      <point x="1581" y="1199"/>
      <point x="1581" y="1199"/>
      <point x="1604" y="1269" type="qcurve" smooth="yes"/>
      <point x="1625" y="1331"/>
      <point x="1625" y="1331"/>
      <point x="1629" y="1330" type="qcurve" smooth="yes"/>
      <point x="1633" y="1329"/>
      <point x="1633" y="1329"/>
      <point x="1612" y="1266" type="qcurve" smooth="yes"/>
      <point x="1588" y="1196"/>
      <point x="1588" y="1196"/>
    </contour>
    <contour>
      <point x="1598" y="1341" type="qcurve" smooth="yes"/>
      <point x="1563" y="1352"/>
      <point x="1563" y="1352"/>
      <point x="1564" y="1356" type="qcurve" smooth="yes"/>
      <point x="1565" y="1360"/>
      <point x="1565" y="1360"/>
      <point x="1601" y="1348" type="qcurve" smooth="yes"/>
      <point x="1636" y="1336"/>
      <point x="1636" y="1336"/>
      <point x="1634" y="1332" type="qcurve"/>
      <point x="1633" y="1329"/>
      <point x="1633" y="1329"/>
    </contour>
    <contour>
      <point x="1256" y="664" type="qcurve"/>
      <point x="1252" y="666"/>
      <point x="1252" y="666"/>
      <point x="1264" y="701" type="qcurve" smooth="yes"/>
      <point x="1276" y="736"/>
      <point x="1276" y="736"/>
      <point x="1280" y="735" type="qcurve"/>
      <point x="1284" y="733"/>
      <point x="1284" y="733"/>
      <point x="1272" y="698" type="qcurve" smooth="yes"/>
      <point x="1260" y="663"/>
      <point x="1260" y="663"/>
    </contour>
    <contour>
      <point x="1280" y="735" type="qcurve"/>
      <point x="1276" y="736"/>
      <point x="1276" y="736"/>
      <point x="1288" y="771" type="qcurve" smooth="yes"/>
      <point x="1300" y="806"/>
      <point x="1300" y="806"/>
      <point x="1304" y="805" type="qcurve"/>
      <point x="1307" y="803"/>
      <point x="1307" y="803"/>
      <point x="1296" y="768" type="qcurve" smooth="yes"/>
      <point x="1284" y="733"/>
      <point x="1284" y="733"/>
    </contour>
    <contour>
      <point x="1389" y="620" type="qcurve"/>
      <point x="1385" y="621"/>
      <point x="1385" y="621"/>
      <point x="1397" y="656" type="qcurve" smooth="yes"/>
      <point x="1409" y="691"/>
      <point x="1409" y="691"/>
      <point x="1412" y="690" type="qcurve"/>
      <point x="1416" y="688"/>
      <point x="1416" y="688"/>
      <point x="1404" y="653" type="qcurve" smooth="yes"/>
      <point x="1393" y="618"/>
      <point x="1393" y="618"/>
    </contour>
    <contour>
      <point x="1412" y="690" type="qcurve"/>
      <point x="1409" y="691"/>
      <point x="1409" y="691"/>
      <point x="1421" y="726" type="qcurve" smooth="yes"/>
      <point x="1432" y="761"/>
      <point x="1432" y="761"/>
      <point x="1436" y="760" type="qcurve"/>
      <point x="1440" y="758"/>
      <point x="1440" y="758"/>
      <point x="1428" y="723" type="qcurve" smooth="yes"/>
      <point x="1416" y="688"/>
      <point x="1416" y="688"/>
    </contour>
    <contour>
      <point x="1304" y="805" type="qcurve"/>
      <point x="1300" y="806"/>
      <point x="1300" y="806"/>
      <point x="1312" y="841" type="qcurve" smooth="yes"/>
      <point x="1324" y="876"/>
      <point x="1338" y="919"/>
      <point x="1375" y="1028" type="qcurve" smooth="yes"/>
      <point x="1410" y="1133"/>
      <point x="1424" y="1172"/>
      <point x="1436" y="1207" type="qcurve" smooth="yes"/>
      <point x="1448" y="1243"/>
      <point x="1448" y="1243"/>
      <point x="1452" y="1242" type="qcurve"/>
      <point x="1455" y="1241"/>
      <point x="1455" y="1241"/>
      <point x="1442" y="1205" type="qcurve" smooth="yes"/>
      <point x="1430" y="1169"/>
      <point x="1417" y="1129"/>
      <point x="1381" y="1025" type="qcurve" smooth="yes"/>
      <point x="1344" y="914"/>
      <point x="1330" y="874"/>
      <point x="1318" y="839" type="qcurve" smooth="yes"/>
      <point x="1306" y="804"/>
      <point x="1306" y="804"/>
    </contour>
    <contour>
      <point x="1436" y="760" type="qcurve"/>
      <point x="1433" y="761"/>
      <point x="1433" y="761"/>
      <point x="1445" y="796" type="qcurve" smooth="yes"/>
      <point x="1457" y="831"/>
      <point x="1471" y="873"/>
      <point x="1508" y="982" type="qcurve" smooth="yes"/>
      <point x="1544" y="1087"/>
      <point x="1557" y="1126"/>
      <point x="1569" y="1162" type="qcurve" smooth="yes"/>
      <point x="1581" y="1198"/>
      <point x="1581" y="1198"/>
      <point x="1584" y="1197" type="qcurve"/>
      <point x="1588" y="1196"/>
      <point x="1588" y="1196"/>
      <point x="1576" y="1160" type="qcurve" smooth="yes"/>
      <point x="1564" y="1124"/>
      <point x="1550" y="1084"/>
      <point x="1515" y="980" type="qcurve" smooth="yes"/>
      <point x="1477" y="869"/>
      <point x="1464" y="829"/>
      <point x="1452" y="793" type="qcurve" smooth="yes"/>
      <point x="1440" y="758"/>
      <point x="1440" y="758"/>
    </contour>
    <contour>
      <point x="596" y="531" type="qcurve" smooth="yes"/>
      <point x="592" y="532"/>
      <point x="592" y="532"/>
      <point x="604" y="567" type="qcurve" smooth="yes"/>
      <point x="616" y="602"/>
      <point x="616" y="602"/>
      <point x="620" y="601" type="qcurve" smooth="yes"/>
      <point x="624" y="600"/>
      <point x="624" y="600"/>
      <point x="612" y="565" type="qcurve" smooth="yes"/>
      <point x="600" y="530"/>
      <point x="600" y="530"/>
    </contour>
    <contour>
      <point x="620" y="601" type="qcurve" smooth="yes"/>
      <point x="616" y="602"/>
      <point x="616" y="602"/>
      <point x="628" y="638" type="qcurve" smooth="yes"/>
      <point x="640" y="673"/>
      <point x="640" y="673"/>
      <point x="644" y="671" type="qcurve"/>
      <point x="647" y="670"/>
      <point x="647" y="670"/>
      <point x="635" y="635" type="qcurve" smooth="yes"/>
      <point x="624" y="600"/>
      <point x="624" y="600"/>
    </contour>
    <contour>
      <point x="729" y="486" type="qcurve"/>
      <point x="725" y="487"/>
      <point x="725" y="487"/>
      <point x="737" y="523" type="qcurve" smooth="yes"/>
      <point x="749" y="558"/>
      <point x="749" y="558"/>
      <point x="752" y="556" type="qcurve"/>
      <point x="756" y="555"/>
      <point x="756" y="555"/>
      <point x="744" y="520" type="qcurve" smooth="yes"/>
      <point x="732" y="485"/>
      <point x="732" y="485"/>
    </contour>
    <contour>
      <point x="752" y="556" type="qcurve"/>
      <point x="749" y="558"/>
      <point x="749" y="558"/>
      <point x="760" y="593" type="qcurve" smooth="yes"/>
      <point x="772" y="628"/>
      <point x="772" y="628"/>
      <point x="776" y="626" type="qcurve"/>
      <point x="780" y="625"/>
      <point x="780" y="625"/>
      <point x="768" y="590" type="qcurve" smooth="yes"/>
      <point x="756" y="555"/>
      <point x="756" y="555"/>
    </contour>
    <contour>
      <point x="911" y="487" type="qcurve"/>
      <point x="907" y="485"/>
      <point x="907" y="485"/>
      <point x="895" y="520" type="qcurve" smooth="yes"/>
      <point x="883" y="555"/>
      <point x="883" y="555"/>
      <point x="887" y="557" type="qcurve"/>
      <point x="891" y="558"/>
      <point x="891" y="558"/>
      <point x="903" y="523" type="qcurve" smooth="yes"/>
      <point x="915" y="488"/>
      <point x="915" y="488"/>
    </contour>
    <contour>
      <point x="887" y="557" type="qcurve"/>
      <point x="883" y="555"/>
      <point x="883" y="555"/>
      <point x="872" y="590" type="qcurve" smooth="yes"/>
      <point x="860" y="625"/>
      <point x="860" y="625"/>
      <point x="863" y="627" type="qcurve"/>
      <point x="867" y="628"/>
      <point x="867" y="628"/>
      <point x="879" y="593" type="qcurve" smooth="yes"/>
      <point x="891" y="558"/>
      <point x="891" y="558"/>
    </contour>
    <contour>
      <point x="1051" y="534" type="qcurve" smooth="yes"/>
      <point x="1047" y="533"/>
      <point x="1047" y="533"/>
      <point x="1035" y="568" type="qcurve" smooth="yes"/>
      <point x="1024" y="603"/>
      <point x="1024" y="603"/>
      <point x="1027" y="604" type="qcurve"/>
      <point x="1031" y="605"/>
      <point x="1031" y="605"/>
      <point x="1043" y="570" type="qcurve" smooth="yes"/>
      <point x="1055" y="535"/>
      <point x="1055" y="535"/>
    </contour>
    <contour>
      <point x="1027" y="604" type="qcurve"/>
      <point x="1024" y="603"/>
      <point x="1024" y="603"/>
      <point x="1012" y="638" type="qcurve" smooth="yes"/>
      <point x="1000" y="673"/>
      <point x="1000" y="673"/>
      <point x="1004" y="674" type="qcurve"/>
      <point x="1007" y="675"/>
      <point x="1007" y="675"/>
      <point x="1019" y="640" type="qcurve" smooth="yes"/>
      <point x="1031" y="605"/>
      <point x="1031" y="605"/>
    </contour>
  </outline>
</glyph>
<glyph name="BaseCrown2" format="1">
  <advance width="500"/>
  <outline>
    <contour>
      <point x="231" y="0" type="qcurve" smooth="yes"/>
      <point x="204" y="0"/>
      <point x="204" y="0"/>
      <point x="203" y="3" type="qcurve"/>
      <point x="201" y="8"/>
      <point x="201" y="8"/>
      <point x="226" y="8" type="qcurve" smooth="yes"/>
      <point x="252" y="8"/>
      <point x="252" y="8"/>
      <point x="252" y="4" type="qcurve" smooth="yes"/>
      <point x="252" y="0"/>
      <point x="252" y="0"/>
    </contour>
    <contour>
      <point x="205" y="8" type="qcurve" smooth="yes"/>
      <point x="201" y="8"/>
      <point x="201" y="8"/>
      <point x="161" y="115" type="qcurve" smooth="yes"/>
      <point x="148" y="152"/>
      <point x="148" y="152"/>
      <point x="153" y="152" type="qcurve" smooth="yes"/>
      <point x="158" y="152"/>
      <point x="158" y="152"/>
      <point x="170" y="118" type="qcurve" smooth="yes"/>
      <point x="210" y="8"/>
      <point x="210" y="8"/>
    </contour>
    <contour>
      <point x="250" y="283" type="qcurve" smooth="yes"/>
      <point x="249" y="286"/>
      <point x="249" y="286"/>
      <point x="251" y="296" type="qcurve" smooth="yes"/>
      <point x="252" y="302"/>
      <point x="252" y="302"/>
      <point x="253" y="296" type="qcurve" smooth="yes"/>
      <point x="255" y="286"/>
      <point x="255" y="286"/>
      <point x="254" y="283" type="qcurve" smooth="yes"/>
      <point x="252" y="277"/>
      <point x="252" y="277"/>
    </contour>
    <contour>
      <point x="273" y="0" type="qcurve" smooth="yes"/>
      <point x="252" y="0"/>
      <point x="252" y="0"/>
      <point x="252" y="4" type="qcurve" smooth="yes"/>
      <point x="252" y="8"/>
      <point x="252" y="8"/>
      <point x="278" y="8" type="qcurve" smooth="yes"/>
      <point x="303" y="8"/>
      <point x="303" y="8"/>
      <point x="301" y="3" type="qcurve"/>
      <point x="300" y="0"/>
      <point x="300" y="0"/>
    </contour>
    <contour>
      <point x="298" y="8" type="qcurve" smooth="yes"/>
      <point x="294" y="8"/>
      <point x="294" y="8"/>
      <point x="335" y="118" type="qcurve" smooth="yes"/>
      <point x="347" y="152"/>
      <point x="347" y="152"/>
      <point x="352" y="152" type="qcurve" smooth="yes"/>
      <point x="356" y="152"/>
      <point x="356" y="152"/>
      <point x="343" y="115" type="qcurve" smooth="yes"/>
      <point x="303" y="8"/>
      <point x="303" y="8"/>
    </contour>
  </outline>
</glyph>
<glyph name="BaseLeftCurvedElement" format="1">
  <advance width="656"/>
  <outline>
    <contour>
      <point x="18" y="17" type="qcurve"/>
      <point x="16" y="18"/>
      <point x="16" y="18"/>
      <point x="16" y="61" type="qcurve" smooth="yes"/>
      <point x="16" y="100"/>
      <point x="16" y="100"/>
      <point x="20" y="98" type="qcurve"/>
      <point x="23" y="96"/>
      <point x="23" y="96"/>
      <point x="23" y="58" type="qcurve" smooth="yes"/>
      <point x="23" y="15"/>
      <point x="23" y="15"/>
    </contour>
    <contour>
      <point x="20" y="98" type="qcurve"/>
      <point x="16" y="100"/>
      <point x="16" y="100"/>
      <point x="16" y="149" type="qcurve" smooth="yes"/>
      <point x="16" y="184"/>
      <point x="16" y="184"/>
      <point x="20" y="182" type="qcurve"/>
      <point x="23" y="180"/>
      <point x="23" y="180"/>
      <point x="23" y="140" type="qcurve" smooth="yes"/>
      <point x="23" y="96"/>
      <point x="23" y="96"/>
    </contour>
    <contour>
      <point x="98" y="-9" type="qcurve"/>
      <point x="23" y="15"/>
      <point x="23" y="15"/>
      <point x="23" y="20" type="qcurve" smooth="yes"/>
      <point x="23" y="24"/>
      <point x="23" y="24"/>
      <point x="98" y="0" type="qcurve"/>
      <point x="180" y="-13"/>
      <point x="180" y="-13"/>
      <point x="180" y="-17" type="qcurve" smooth="yes"/>
      <point x="180" y="-22"/>
      <point x="180" y="-22"/>
    </contour>
    <contour>
      <point x="98" y="137" type="qcurve"/>
      <point x="23" y="171"/>
      <point x="23" y="171"/>
      <point x="23" y="175" type="qcurve" smooth="yes"/>
      <point x="23" y="180"/>
      <point x="23" y="180"/>
      <point x="98" y="145" type="qcurve"/>
      <point x="180" y="125"/>
      <point x="180" y="125"/>
      <point x="180" y="121" type="qcurve" smooth="yes"/>
      <point x="180" y="117"/>
      <point x="180" y="117"/>
    </contour>
  </outline>
</glyph>
<glyph name="CCWTerm" format="1">
  <advance width="508"/>
  <outline>
    <contour>
      <point x="180" y="1220" type="qcurve" smooth="yes"/>
      <point x="176" y="1220"/>
      <point x="176" y="1220"/>
      <point x="176" y="1294" type="qcurve" smooth="yes"/>
      <point x="176" y="1360"/>
      <point x="176" y="1360"/>
      <point x="180" y="1360" type="qcurve" smooth="yes"/>
      <point x="184" y="1360"/>
      <point x="184" y="1360"/>
      <point x="184" y="1294" type="qcurve" smooth="yes"/>
      <point x="184" y="1220"/>
      <point x="184" y="1220"/>
    </contour>
    <contour>
      <point x="215" y="1360" type="qcurve" smooth="yes"/>
      <point x="176" y="1360"/>
      <point x="176" y="1360"/>
      <point x="176" y="1364" type="qcurve" smooth="yes"/>
      <point x="176" y="1368"/>
      <point x="176" y="1368"/>
      <point x="215" y="1368" type="qcurve" smooth="yes"/>
      <point x="254" y="1368"/>
      <point x="254" y="1368"/>
      <point x="254" y="1364" type="qcurve" smooth="yes"/>
      <point x="254" y="1360"/>
      <point x="254" y="1360"/>
    </contour>
    <contour>
      <point x="328" y="1220" type="qcurve" smooth="yes"/>
      <point x="324" y="1220"/>
      <point x="324" y="1220"/>
      <point x="324" y="1294" type="qcurve" smooth="yes"/>
      <point x="324" y="1360"/>
      <point x="324" y="1360"/>
      <point x="328" y="1360" type="qcurve" smooth="yes"/>
      <point x="332" y="1360"/>
      <point x="332" y="1360"/>
      <point x="332" y="1294" type="qcurve" smooth="yes"/>
      <point x="332" y="1220"/>
      <point x="332" y="1220"/>
    </contour>
    <contour>
      <point x="293" y="1360" type="qcurve" smooth="yes"/>
      <point x="254" y="1360"/>
      <point x="254" y="1360"/>
      <point x="254" y="1364" type="qcurve" smooth="yes"/>
      <point x="254" y="1368"/>
      <point x="254" y="1368"/>
      <point x="293" y="1368" type="qcurve" smooth="yes"/>
      <point x="332" y="1368"/>
      <point x="332" y="1368"/>
      <point x="332" y="1364" type="qcurve" smooth="yes"/>
      <point x="332" y="1360"/>
      <point x="332" y="1360"/>
    </contour>
  </outline>
</glyph>
<glyph name="CCWTopMid" format="1">
  <advance width="1212"/>
  <outline>
    <contour>
      <point x="532" y="758" type="qcurve" smooth="yes"/>
      <point x="528" y="758"/>
      <point x="528" y="758"/>
      <point x="528" y="795" type="qcurve" smooth="yes"/>
      <point x="528" y="833"/>
      <point x="528" y="878"/>
      <point x="528" y="993" type="qcurve" smooth="yes"/>
      <point x="528" y="1104"/>
      <point x="528" y="1144"/>
      <point x="528" y="1182" type="qcurve" smooth="yes"/>
      <point x="528" y="1220"/>
      <point x="528" y="1220"/>
      <point x="532" y="1220" type="qcurve" smooth="yes"/>
      <point x="536" y="1220"/>
      <point x="536" y="1220"/>
      <point x="536" y="1182" type="qcurve" smooth="yes"/>
      <point x="536" y="1144"/>
      <point x="536" y="1103"/>
      <point x="536" y="993" type="qcurve" smooth="yes"/>
      <point x="536" y="876"/>
      <point x="536" y="833"/>
      <point x="536" y="795" type="qcurve" smooth="yes"/>
      <point x="536" y="758"/>
      <point x="536" y="758"/>
    </contour>
    <contour>
      <point x="680" y="758" type="qcurve" smooth="yes"/>
      <point x="676" y="758"/>
      <point x="676" y="758"/>
      <point x="676" y="795" type="qcurve" smooth="yes"/>
      <point x="676" y="833"/>
      <point x="676" y="878"/>
      <point x="676" y="993" type="qcurve" smooth="yes"/>
      <point x="676" y="1104"/>
      <point x="676" y="1144"/>
      <point x="676" y="1182" type="qcurve" smooth="yes"/>
      <point x="676" y="1220"/>
      <point x="676" y="1220"/>
      <point x="680" y="1220" type="qcurve" smooth="yes"/>
      <point x="684" y="1220"/>
      <point x="684" y="1220"/>
      <point x="684" y="1182" type="qcurve" smooth="yes"/>
      <point x="684" y="1144"/>
      <point x="684" y="1103"/>
      <point x="684" y="993" type="qcurve" smooth="yes"/>
      <point x="684" y="876"/>
      <point x="684" y="833"/>
      <point x="684" y="795" type="qcurve" smooth="yes"/>
      <point x="684" y="758"/>
      <point x="684" y="758"/>
    </contour>
  </outline>
</glyph>
<glyph name="RightCrown" format="1">
  <advance width="337"/>
  <outline>
    <contour>
      <point x="94" y="695" type="qcurve"/>
      <point x="52" y="697"/>
      <point x="52" y="697"/>
      <point x="52" y="701" type="qcurve" smooth="yes"/>
      <point x="52" y="705"/>
      <point x="52" y="705"/>
      <point x="93" y="703" type="qcurve" smooth="yes"/>
      <point x="134" y="700"/>
      <point x="134" y="700"/>
      <point x="134" y="696" type="qcurve" smooth="yes"/>
      <point x="134" y="691"/>
      <point x="134" y="691"/>
    </contour>
    <contour>
      <point x="93" y="843" type="qcurve" smooth="yes"/>
      <point x="52" y="841"/>
      <point x="52" y="841"/>
      <point x="52" y="845" type="qcurve" smooth="yes"/>
      <point x="52" y="849"/>
      <point x="52" y="849"/>
      <point x="93" y="851" type="qcurve" smooth="yes"/>
      <point x="134" y="855"/>
      <point x="134" y="855"/>
      <point x="134" y="851" type="qcurve" smooth="yes"/>
      <point x="134" y="847"/>
      <point x="134" y="847"/>
    </contour>
    <contour>
      <point x="168" y="680" type="qcurve"/>
      <point x="134" y="691"/>
      <point x="134" y="691"/>
      <point x="134" y="696" type="qcurve" smooth="yes"/>
      <point x="134" y="700"/>
      <point x="134" y="700"/>
      <point x="173" y="687" type="qcurve"/>
      <point x="206" y="668"/>
      <point x="206" y="668"/>
      <point x="206" y="665" type="qcurve" smooth="yes"/>
      <point x="206" y="660"/>
      <point x="206" y="660"/>
    </contour>
    <contour>
      <point x="173" y="864" type="qcurve"/>
      <point x="134" y="847"/>
      <point x="134" y="847"/>
      <point x="134" y="851" type="qcurve" smooth="yes"/>
      <point x="134" y="855"/>
      <point x="134" y="855"/>
      <point x="169" y="871" type="qcurve"/>
      <point x="206" y="896"/>
      <point x="206" y="896"/>
      <point x="206" y="851" type="qcurve"/>
      <point x="206" y="886"/>
      <point x="206" y="886"/>
    </contour>
    <contour>
      <point x="272" y="773" type="qcurve" smooth="yes"/>
      <point x="268" y="775"/>
      <point x="268" y="775"/>
      <point x="272" y="777" type="qcurve" smooth="yes"/>
      <point x="276" y="779"/>
      <point x="276" y="779"/>
      <point x="281" y="777" type="qcurve"/>
      <point x="285" y="775"/>
      <point x="285" y="775"/>
      <point x="281" y="773" type="qcurve"/>
      <point x="276" y="771"/>
      <point x="276" y="771"/>
    </contour>
  </outline>
</glyph>
<glyph name="RightUJoint" format="1">
  <advance width="556"/>
  <outline>
    <contour>
      <point x="77" y="-23" type="qcurve" smooth="yes"/>
      <point x="163" y="-23"/>
      <point x="334" y="49"/>
      <point x="395" y="120" type="qcurve" smooth="yes"/>
      <point x="457" y="191"/>
      <point x="503" y="408"/>
      <point x="503" y="542" type="qcurve" smooth="yes"/>
      <point x="503" y="608"/>
      <point x="503" y="608"/>
      <point x="499" y="608" type="qcurve" smooth="yes"/>
      <point x="495" y="608"/>
      <point x="495" y="608"/>
      <point x="495" y="551" type="qcurve" smooth="yes"/>
      <point x="495" y="412"/>
      <point x="447" y="192"/>
      <point x="388" y="124" type="qcurve" smooth="yes"/>
      <point x="330" y="58"/>
      <point x="168" y="-13"/>
      <point x="68" y="-16" type="qcurve" smooth="yes"/>
      <point x="50" y="-16"/>
      <point x="50" y="-16"/>
      <point x="50" y="-20" type="qcurve" smooth="yes"/>
      <point x="50" y="-24"/>
      <point x="50" y="-24"/>
    </contour>
    <contour>
      <point x="68" y="117" type="qcurve" smooth="yes"/>
      <point x="132" y="120"/>
      <point x="247" y="176"/>
      <point x="282" y="229" type="qcurve" smooth="yes"/>
      <point x="315" y="279"/>
      <point x="347" y="403"/>
      <point x="347" y="551" type="qcurve" smooth="yes"/>
      <point x="347" y="608"/>
      <point x="347" y="608"/>
      <point x="343" y="608" type="qcurve" smooth="yes"/>
      <point x="339" y="608"/>
      <point x="339" y="608"/>
      <point x="339" y="560" type="qcurve" smooth="yes"/>
      <point x="339" y="411"/>
      <point x="307" y="280"/>
      <point x="276" y="235" type="qcurve" smooth="yes"/>
      <point x="240" y="182"/>
      <point x="129" y="128"/>
      <point x="66" y="125" type="qcurve" smooth="yes"/>
      <point x="50" y="124"/>
      <point x="50" y="124"/>
      <point x="50" y="120" type="qcurve" smooth="yes"/>
      <point x="50" y="116"/>
      <point x="50" y="116"/>
    </contour>
  </outline>
</glyph>
<glyph name="RoundDualyNW" format="1">
  <advance width="653"/>
  <outline>
    <contour>
      <point x="4" y="760" type="qcurve" smooth="yes"/>
      <point x="0" y="760"/>
      <point x="0" y="760"/>
      <point x="0" y="764" type="qcurve" smooth="yes"/>
      <point x="5" y="878"/>
      <point x="113" y="1100"/>
      <point x="200" y="1187" type="qcurve" smooth="yes"/>
      <point x="288" y="1277"/>
      <point x="521" y="1393"/>
      <point x="650" y="1401" type="qcurve"/>
      <point x="653" y="1401"/>
      <point x="653" y="1401"/>
      <point x="653" y="1397" type="qcurve" smooth="yes"/>
      <point x="653" y="1393"/>
      <point x="653" y="1393"/>
      <point x="648" y="1393" type="qcurve"/>
      <point x="524" y="1385"/>
      <point x="294" y="1269"/>
      <point x="206" y="1180" type="qcurve" smooth="yes"/>
      <point x="121" y="1094"/>
      <point x="15" y="876"/>
      <point x="9" y="764" type="qcurve"/>
      <point x="9" y="760"/>
      <point x="9" y="760"/>
    </contour>
    <contour>
      <point x="166" y="760" type="qcurve" smooth="yes"/>
      <point x="162" y="760"/>
      <point x="162" y="760"/>
      <point x="163" y="765" type="qcurve"/>
      <point x="177" y="864"/>
      <point x="254" y="1026"/>
      <point x="310" y="1087" type="qcurve" smooth="yes"/>
      <point x="374" y="1155"/>
      <point x="546" y="1239"/>
      <point x="645" y="1251" type="qcurve" smooth="yes"/>
      <point x="653" y="1252"/>
      <point x="653" y="1252"/>
      <point x="653" y="1248" type="qcurve" smooth="yes"/>
      <point x="653" y="1244"/>
      <point x="653" y="1244"/>
      <point x="646" y="1243" type="qcurve" smooth="yes"/>
      <point x="550" y="1230"/>
      <point x="381" y="1147"/>
      <point x="318" y="1080" type="qcurve" smooth="yes"/>
      <point x="262" y="1020"/>
      <point x="186" y="861"/>
      <point x="171" y="765" type="qcurve" smooth="yes"/>
      <point x="170" y="760"/>
      <point x="170" y="760"/>
    </contour>
  </outline>
</glyph>
<glyph name="RoundDualySW" format="1">
  <advance width="653"/>
  <outline>
    <contour>
      <point x="646" y="-25" type="qcurve"/>
      <point x="521" y="-17"/>
      <point x="285" y="95"/>
      <point x="197" y="184" type="qcurve" smooth="yes"/>
      <point x="110" y="270"/>
      <point x="5" y="491"/>
      <point x="0" y="604" type="qcurve" smooth="yes"/>
      <point x="0" y="608"/>
      <point x="0" y="608"/>
      <point x="4" y="608" type="qcurve" smooth="yes"/>
      <point x="9" y="608"/>
      <point x="9" y="608"/>
      <point x="9" y="604" type="qcurve"/>
      <point x="15" y="493"/>
      <point x="118" y="276"/>
      <point x="203" y="191" type="qcurve" smooth="yes"/>
      <point x="291" y="103"/>
      <point x="524" y="-9"/>
      <point x="648" y="-17" type="qcurve"/>
      <point x="653" y="-17"/>
      <point x="653" y="-17"/>
      <point x="653" y="-21" type="qcurve" smooth="yes"/>
      <point x="653" y="-25"/>
      <point x="653" y="-25"/>
    </contour>
    <contour>
      <point x="645" y="117" type="qcurve" smooth="yes"/>
      <point x="546" y="129"/>
      <point x="373" y="212"/>
      <point x="309" y="280" type="qcurve" smooth="yes"/>
      <point x="253" y="341"/>
      <point x="177" y="504"/>
      <point x="163" y="604" type="qcurve"/>
      <point x="162" y="608"/>
      <point x="162" y="608"/>
      <point x="166" y="608" type="qcurve" smooth="yes"/>
      <point x="170" y="608"/>
      <point x="170" y="608"/>
      <point x="171" y="603" type="qcurve" smooth="yes"/>
      <point x="186" y="507"/>
      <point x="261" y="347"/>
      <point x="317" y="287" type="qcurve" smooth="yes"/>
      <point x="380" y="220"/>
      <point x="550" y="138"/>
      <point x="645" y="125" type="qcurve" smooth="yes"/>
      <point x="653" y="124"/>
      <point x="653" y="124"/>
      <point x="653" y="120" type="qcurve" smooth="yes"/>
      <point x="653" y="116"/>
      <point x="653" y="116"/>
    </contour>
  </outline>
</glyph>
<glyph name="RoundWaistElement180" format="1">
  <advance width="164"/>
  <outline>
    <contour>
      <point x="41" y="-28" type="qcurve" smooth="yes"/>
      <point x="0" y="-25"/>
      <point x="0" y="-25"/>
      <point x="0" y="-21" type="qcurve" smooth="yes"/>
      <point x="0" y="-16"/>
      <point x="0" y="-16"/>
      <point x="42" y="-19" type="qcurve" smooth="yes"/>
      <point x="82" y="-20"/>
      <point x="82" y="-20"/>
      <point x="82" y="-25" type="qcurve" smooth="yes"/>
      <point x="82" y="-29"/>
      <point x="82" y="-29"/>
    </contour>
    <contour>
      <point x="42" y="112" type="qcurve"/>
      <point x="0" y="116"/>
      <point x="0" y="116"/>
      <point x="0" y="119" type="qcurve" smooth="yes"/>
      <point x="0" y="124"/>
      <point x="0" y="124"/>
      <point x="43" y="120" type="qcurve"/>
      <point x="82" y="119"/>
      <point x="82" y="119"/>
      <point x="82" y="115" type="qcurve" smooth="yes"/>
      <point x="82" y="111"/>
      <point x="82" y="111"/>
    </contour>
    <contour>
      <point x="123" y="-28" type="qcurve" smooth="yes"/>
      <point x="82" y="-29"/>
      <point x="82" y="-29"/>
      <point x="82" y="-25" type="qcurve" smooth="yes"/>
      <point x="82" y="-20"/>
      <point x="82" y="-20"/>
      <point x="122" y="-19" type="qcurve" smooth="yes"/>
      <point x="164" y="-16"/>
      <point x="164" y="-16"/>
      <point x="164" y="-21" type="qcurve" smooth="yes"/>
      <point x="164" y="-25"/>
      <point x="164" y="-25"/>
    </contour>
    <contour>
      <point x="122" y="112" type="qcurve" smooth="yes"/>
      <point x="82" y="111"/>
      <point x="82" y="111"/>
      <point x="82" y="115" type="qcurve" smooth="yes"/>
      <point x="82" y="119"/>
      <point x="82" y="119"/>
      <point x="121" y="120" type="qcurve"/>
      <point x="164" y="124"/>
      <point x="164" y="124"/>
      <point x="164" y="120" type="qcurve" smooth="yes"/>
      <point x="164" y="115"/>
      <point x="164" y="115"/>
    </contour>
  </outline>
</glyph>
<glyph name="RoundWaistElement270" format="1">
  <advance width="173"/>
  <outline>
    <contour>
      <point x="7" y="608" type="qcurve" smooth="yes"/>
      <point x="3" y="608"/>
      <point x="3" y="608"/>
      <point x="1" y="646" type="qcurve" smooth="yes"/>
      <point x="0" y="684"/>
      <point x="0" y="684"/>
      <point x="4" y="684" type="qcurve" smooth="yes"/>
      <point x="9" y="684"/>
      <point x="9" y="684"/>
      <point x="10" y="646" type="qcurve" smooth="yes"/>
      <point x="12" y="608"/>
      <point x="12" y="608"/>
    </contour>
    <contour>
      <point x="4" y="684" type="qcurve" smooth="yes"/>
      <point x="0" y="684"/>
      <point x="0" y="684"/>
      <point x="1" y="722" type="qcurve" smooth="yes"/>
      <point x="3" y="760"/>
      <point x="3" y="760"/>
      <point x="7" y="760" type="qcurve" smooth="yes"/>
      <point x="12" y="760"/>
      <point x="12" y="760"/>
      <point x="10" y="722" type="qcurve" smooth="yes"/>
      <point x="9" y="684"/>
      <point x="9" y="684"/>
    </contour>
    <contour>
      <point x="169" y="608" type="qcurve" smooth="yes"/>
      <point x="165" y="608"/>
      <point x="165" y="608"/>
      <point x="162" y="646" type="qcurve"/>
      <point x="161" y="684"/>
      <point x="161" y="684"/>
      <point x="165" y="684" type="qcurve" smooth="yes"/>
      <point x="169" y="684"/>
      <point x="169" y="684"/>
      <point x="170" y="646" type="qcurve"/>
      <point x="173" y="608"/>
      <point x="173" y="608"/>
    </contour>
    <contour>
      <point x="166" y="684" type="qcurve" smooth="yes"/>
      <point x="161" y="684"/>
      <point x="161" y="684"/>
      <point x="162" y="722" type="qcurve"/>
      <point x="165" y="760"/>
      <point x="165" y="760"/>
      <point x="169" y="760" type="qcurve" smooth="yes"/>
      <point x="173" y="760"/>
      <point x="173" y="760"/>
      <point x="170" y="722" type="qcurve"/>
      <point x="169" y="684"/>
      <point x="169" y="684"/>
    </contour>
  </outline>
</glyph>
<glyph name="RoundWaistElement90" format="1">
  <advance width="173"/>
  <outline>
    <contour>
      <point x="4" y="608" type="qcurve" smooth="yes"/>
      <point x="0" y="608"/>
      <point x="0" y="608"/>
      <point x="3" y="646" type="qcurve"/>
      <point x="4" y="684"/>
      <point x="4" y="684"/>
      <point x="8" y="684" type="qcurve" smooth="yes"/>
      <point x="12" y="684"/>
      <point x="12" y="684"/>
      <point x="11" y="646" type="qcurve"/>
      <point x="8" y="608"/>
      <point x="8" y="608"/>
    </contour>
    <contour>
      <point x="8" y="684" type="qcurve" smooth="yes"/>
      <point x="4" y="684"/>
      <point x="4" y="684"/>
      <point x="3" y="722" type="qcurve"/>
      <point x="0" y="760"/>
      <point x="0" y="760"/>
      <point x="4" y="760" type="qcurve" smooth="yes"/>
      <point x="8" y="760"/>
      <point x="8" y="760"/>
      <point x="11" y="722" type="qcurve"/>
      <point x="12" y="684"/>
      <point x="12" y="684"/>
    </contour>
    <contour>
      <point x="166" y="608" type="qcurve" smooth="yes"/>
      <point x="161" y="608"/>
      <point x="161" y="608"/>
      <point x="163" y="646" type="qcurve" smooth="yes"/>
      <point x="164" y="684"/>
      <point x="164" y="684"/>
      <point x="169" y="684" type="qcurve" smooth="yes"/>
      <point x="173" y="684"/>
      <point x="173" y="684"/>
      <point x="172" y="646" type="qcurve" smooth="yes"/>
      <point x="170" y="608"/>
      <point x="170" y="608"/>
    </contour>
    <contour>
      <point x="169" y="684" type="qcurve" smooth="yes"/>
      <point x="164" y="684"/>
      <point x="164" y="684"/>
      <point x="163" y="722" type="qcurve" smooth="yes"/>
      <point x="161" y="760"/>
      <point x="161" y="760"/>
      <point x="166" y="760" type="qcurve" smooth="yes"/>
      <point x="170" y="760"/>
      <point x="170" y="760"/>
      <point x="172" y="722" type="qcurve" smooth="yes"/>
      <point x="173" y="684"/>
      <point x="173" y="684"/>
    </contour>
  </outline>
</glyph>
<glyph name="TopCrownW" format="1">
  <advance width="500"/>
  <outline>
    <contour>
      <point x="153" y="150" type="qcurve" smooth="yes"/>
      <point x="148" y="150"/>
      <point x="148" y="150"/>
      <point x="161" y="187" type="qcurve" smooth="yes"/>
      <point x="201" y="294"/>
      <point x="201" y="294"/>
      <point x="205" y="294" type="qcurve" smooth="yes"/>
      <point x="210" y="294"/>
      <point x="210" y="294"/>
      <point x="170" y="184" type="qcurve" smooth="yes"/>
      <point x="158" y="150"/>
      <point x="158" y="150"/>
    </contour>
    <contour>
      <point x="226" y="294" type="qcurve" smooth="yes"/>
      <point x="201" y="294"/>
      <point x="201" y="294"/>
      <point x="203" y="299" type="qcurve"/>
      <point x="204" y="302"/>
      <point x="204" y="302"/>
      <point x="231" y="302" type="qcurve" smooth="yes"/>
      <point x="252" y="302"/>
      <point x="252" y="302"/>
      <point x="252" y="298" type="qcurve" smooth="yes"/>
      <point x="252" y="294"/>
      <point x="252" y="294"/>
    </contour>
    <contour>
      <point x="251" y="6" type="qcurve" smooth="yes"/>
      <point x="249" y="17"/>
      <point x="249" y="17"/>
      <point x="250" y="20" type="qcurve"/>
      <point x="252" y="25"/>
      <point x="252" y="25"/>
      <point x="254" y="20" type="qcurve"/>
      <point x="255" y="17"/>
      <point x="255" y="17"/>
      <point x="253" y="6" type="qcurve" smooth="yes"/>
      <point x="252" y="0"/>
      <point x="252" y="0"/>
    </contour>
    <contour>
      <point x="352" y="150" type="qcurve" smooth="yes"/>
      <point x="347" y="150"/>
      <point x="347" y="150"/>
      <point x="335" y="184" type="qcurve" smooth="yes"/>
      <point x="294" y="294"/>
      <point x="294" y="294"/>
      <point x="298" y="294" type="qcurve" smooth="yes"/>
      <point x="303" y="294"/>
      <point x="303" y="294"/>
      <point x="343" y="187" type="qcurve" smooth="yes"/>
      <point x="356" y="150"/>
      <point x="356" y="150"/>
    </contour>
    <contour>
      <point x="278" y="294" type="qcurve" smooth="yes"/>
      <point x="252" y="294"/>
      <point x="252" y="294"/>
      <point x="252" y="298" type="qcurve" smooth="yes"/>
      <point x="252" y="302"/>
      <point x="252" y="302"/>
      <point x="273" y="302" type="qcurve" smooth="yes"/>
      <point x="300" y="302"/>
      <point x="300" y="302"/>
      <point x="301" y="299" type="qcurve"/>
      <point x="303" y="294"/>
      <point x="303" y="294"/>
    </contour>
  </outline>
</glyph>
<glyph name="TopCrown" format="1">
  <advance width="346"/>
  <outline>
    <contour>
      <point x="57" y="1216" type="qcurve" smooth="yes"/>
      <point x="52" y="1216"/>
      <point x="52" y="1216"/>
      <point x="68" y="1252" type="qcurve" smooth="yes"/>
      <point x="115" y="1360"/>
      <point x="115" y="1360"/>
      <point x="119" y="1360" type="qcurve" smooth="yes"/>
      <point x="124" y="1360"/>
      <point x="124" y="1360"/>
      <point x="77" y="1251" type="qcurve" smooth="yes"/>
      <point x="62" y="1216"/>
      <point x="62" y="1216"/>
    </contour>
    <contour>
      <point x="147" y="1360" type="qcurve" smooth="yes"/>
      <point x="115" y="1360"/>
      <point x="115" y="1360"/>
      <point x="117" y="1364" type="qcurve" smooth="yes"/>
      <point x="119" y="1368"/>
      <point x="119" y="1368"/>
      <point x="147" y="1368" type="qcurve" smooth="yes"/>
      <point x="173" y="1368"/>
      <point x="173" y="1368"/>
      <point x="173" y="1364" type="qcurve" smooth="yes"/>
      <point x="173" y="1360"/>
      <point x="173" y="1360"/>
    </contour>
    <contour>
      <point x="171" y="1128" type="qcurve"/>
      <point x="169" y="1132"/>
      <point x="169" y="1132"/>
      <point x="171" y="1137" type="qcurve" smooth="yes"/>
      <point x="173" y="1142"/>
      <point x="173" y="1142"/>
      <point x="175" y="1137" type="qcurve" smooth="yes"/>
      <point x="177" y="1132"/>
      <point x="177" y="1132"/>
      <point x="175" y="1128" type="qcurve"/>
      <point x="173" y="1123"/>
      <point x="173" y="1123"/>
    </contour>
    <contour>
      <point x="290" y="1216" type="qcurve" smooth="yes"/>
      <point x="285" y="1216"/>
      <point x="285" y="1216"/>
      <point x="270" y="1250" type="qcurve" smooth="yes"/>
      <point x="222" y="1360"/>
      <point x="222" y="1360"/>
      <point x="226" y="1360" type="qcurve" smooth="yes"/>
      <point x="231" y="1360"/>
      <point x="231" y="1360"/>
      <point x="278" y="1252" type="qcurve" smooth="yes"/>
      <point x="294" y="1216"/>
      <point x="294" y="1216"/>
    </contour>
    <contour>
      <point x="199" y="1360" type="qcurve" smooth="yes"/>
      <point x="173" y="1360"/>
      <point x="173" y="1360"/>
      <point x="173" y="1364" type="qcurve" smooth="yes"/>
      <point x="173" y="1368"/>
      <point x="173" y="1368"/>
      <point x="199" y="1368" type="qcurve" smooth="yes"/>
      <point x="227" y="1368"/>
      <point x="227" y="1368"/>
      <point x="229" y="1364" type="qcurve" smooth="yes"/>
      <point x="231" y="1360"/>
      <point x="231" y="1360"/>
    </contour>
  </outline>
</glyph>
<glyph name="TopCurvedElement" format="1">
  <advance width="656"/>
  <outline>
    <contour>
      <point x="328" y="1198" type="qcurve"/>
      <point x="246" y="1230"/>
      <point x="246" y="1230"/>
      <point x="246" y="1234" type="qcurve" smooth="yes"/>
      <point x="246" y="1238"/>
      <point x="246" y="1238"/>
      <point x="328" y="1206" type="qcurve"/>
      <point x="403" y="1163"/>
      <point x="403" y="1163"/>
      <point x="403" y="1159" type="qcurve" smooth="yes"/>
      <point x="403" y="1154"/>
      <point x="403" y="1154"/>
    </contour>
    <contour>
      <point x="328" y="1356" type="qcurve"/>
      <point x="246" y="1378"/>
      <point x="246" y="1378"/>
      <point x="246" y="1382" type="qcurve" smooth="yes"/>
      <point x="246" y="1387"/>
      <point x="246" y="1387"/>
      <point x="328" y="1365" type="qcurve"/>
      <point x="403" y="1334"/>
      <point x="403" y="1334"/>
      <point x="403" y="1329" type="qcurve" smooth="yes"/>
      <point x="403" y="1325"/>
      <point x="403" y="1325"/>
    </contour>
    <contour>
      <point x="406" y="1152" type="qcurve"/>
      <point x="403" y="1154"/>
      <point x="403" y="1154"/>
      <point x="403" y="1208" type="qcurve" smooth="yes"/>
      <point x="403" y="1249"/>
      <point x="403" y="1249"/>
      <point x="406" y="1247" type="qcurve"/>
      <point x="410" y="1245"/>
      <point x="410" y="1245"/>
      <point x="410" y="1207" type="qcurve" smooth="yes"/>
      <point x="410" y="1149"/>
      <point x="410" y="1149"/>
    </contour>
    <contour>
      <point x="406" y="1247" type="qcurve"/>
      <point x="403" y="1249"/>
      <point x="403" y="1249"/>
      <point x="403" y="1295" type="qcurve" smooth="yes"/>
      <point x="403" y="1334"/>
      <point x="403" y="1334"/>
      <point x="407" y="1332" type="qcurve"/>
      <point x="410" y="1330"/>
      <point x="410" y="1330"/>
      <point x="410" y="1292" type="qcurve" smooth="yes"/>
      <point x="410" y="1245"/>
      <point x="410" y="1245"/>
    </contour>
  </outline>
</glyph>
<glyph name="TopElementV1" format="1">
  <advance width="656"/>
  <outline>
    <contour>
      <point x="250" y="0" type="qcurve" smooth="yes"/>
      <point x="246" y="0"/>
      <point x="246" y="0"/>
      <point x="246" y="4" type="qcurve" smooth="yes"/>
      <point x="246" y="8"/>
      <point x="246" y="8"/>
      <point x="250" y="8" type="qcurve" smooth="yes"/>
      <point x="254" y="8"/>
      <point x="254" y="8"/>
      <point x="254" y="4" type="qcurve" smooth="yes"/>
      <point x="254" y="0"/>
      <point x="254" y="0"/>
    </contour>
    <contour>
      <point x="287" y="144" type="qcurve" smooth="yes"/>
      <point x="246" y="144"/>
      <point x="246" y="144"/>
      <point x="246" y="148" type="qcurve" smooth="yes"/>
      <point x="246" y="152"/>
      <point x="246" y="152"/>
      <point x="287" y="152" type="qcurve" smooth="yes"/>
      <point x="328" y="152"/>
      <point x="328" y="152"/>
      <point x="328" y="148" type="qcurve" smooth="yes"/>
      <point x="328" y="144"/>
      <point x="328" y="144"/>
    </contour>
    <contour>
      <point x="406" y="0" type="qcurve" smooth="yes"/>
      <point x="402" y="0"/>
      <point x="402" y="0"/>
      <point x="402" y="4" type="qcurve" smooth="yes"/>
      <point x="402" y="8"/>
      <point x="402" y="8"/>
      <point x="406" y="8" type="qcurve" smooth="yes"/>
      <point x="410" y="8"/>
      <point x="410" y="8"/>
      <point x="410" y="4" type="qcurve" smooth="yes"/>
      <point x="410" y="0"/>
      <point x="410" y="0"/>
    </contour>
    <contour>
      <point x="369" y="144" type="qcurve" smooth="yes"/>
      <point x="328" y="144"/>
      <point x="328" y="144"/>
      <point x="328" y="148" type="qcurve" smooth="yes"/>
      <point x="328" y="152"/>
      <point x="328" y="152"/>
      <point x="369" y="152" type="qcurve" smooth="yes"/>
      <point x="410" y="152"/>
      <point x="410" y="152"/>
      <point x="410" y="148" type="qcurve" smooth="yes"/>
      <point x="410" y="144"/>
      <point x="410" y="144"/>
    </contour>
  </outline>
</glyph>
<glyph name="TopTerminalV3" format="1">
  <advance width="656"/>
  <outline>
    <contour>
      <point x="250" y="1216" type="qcurve" smooth="yes"/>
      <point x="246" y="1216"/>
      <point x="246" y="1216"/>
      <point x="246" y="1288" type="qcurve" smooth="yes"/>
      <point x="246" y="1360"/>
      <point x="246" y="1360"/>
      <point x="250" y="1360" type="qcurve" smooth="yes"/>
      <point x="254" y="1360"/>
      <point x="254" y="1360"/>
      <point x="254" y="1288" type="qcurve" smooth="yes"/>
      <point x="254" y="1216"/>
      <point x="254" y="1216"/>
    </contour>
    <contour>
      <point x="287" y="1360" type="qcurve" smooth="yes"/>
      <point x="246" y="1360"/>
      <point x="246" y="1360"/>
      <point x="246" y="1364" type="qcurve" smooth="yes"/>
      <point x="246" y="1368"/>
      <point x="246" y="1368"/>
      <point x="287" y="1368" type="qcurve" smooth="yes"/>
      <point x="328" y="1368"/>
      <point x="328" y="1368"/>
      <point x="328" y="1364" type="qcurve" smooth="yes"/>
      <point x="328" y="1360"/>
      <point x="328" y="1360"/>
    </contour>
    <contour>
      <point x="406" y="1216" type="qcurve" smooth="yes"/>
      <point x="402" y="1216"/>
      <point x="402" y="1216"/>
      <point x="402" y="1288" type="qcurve" smooth="yes"/>
      <point x="402" y="1360"/>
      <point x="402" y="1360"/>
      <point x="406" y="1360" type="qcurve" smooth="yes"/>
      <point x="410" y="1360"/>
      <point x="410" y="1360"/>
      <point x="410" y="1288" type="qcurve" smooth="yes"/>
      <point x="410" y="1216"/>
      <point x="410" y="1216"/>
    </contour>
    <contour>
      <point x="369" y="1360" type="qcurve" smooth="yes"/>
      <point x="328" y="1360"/>
      <point x="328" y="1360"/>
      <point x="328" y="1364" type="qcurve" smooth="yes"/>
      <point x="328" y="1368"/>
      <point x="328" y="1368"/>
      <point x="369" y="1368" type="qcurve" smooth="yes"/>
      <point x="410" y="1368"/>
      <point x="410" y="1368"/>
      <point x="410" y="1364" type="qcurve" smooth="yes"/>
      <point x="410" y="1360"/>
      <point x="410" y="1360"/>
    </contour>
  </outline>
</glyph>
<glyph name="WaistElement" format="1">
  <advance width="656"/>
  <outline>
    <contour>
      <point x="250" y="608" type="qcurve" smooth="yes"/>
      <point x="246" y="608"/>
      <point x="246" y="608"/>
      <point x="246" y="646" type="qcurve" smooth="yes"/>
      <point x="246" y="684"/>
      <point x="246" y="684"/>
      <point x="250" y="684" type="qcurve" smooth="yes"/>
      <point x="254" y="684"/>
      <point x="254" y="684"/>
      <point x="254" y="646" type="qcurve" smooth="yes"/>
      <point x="254" y="608"/>
      <point x="254" y="608"/>
    </contour>
    <contour>
      <point x="250" y="684" type="qcurve" smooth="yes"/>
      <point x="246" y="684"/>
      <point x="246" y="684"/>
      <point x="246" y="722" type="qcurve" smooth="yes"/>
      <point x="246" y="760"/>
      <point x="246" y="760"/>
      <point x="250" y="760" type="qcurve" smooth="yes"/>
      <point x="254" y="760"/>
      <point x="254" y="760"/>
      <point x="254" y="722" type="qcurve" smooth="yes"/>
      <point x="254" y="684"/>
      <point x="254" y="684"/>
    </contour>
    <contour>
      <point x="406" y="608" type="qcurve" smooth="yes"/>
      <point x="402" y="608"/>
      <point x="402" y="608"/>
      <point x="402" y="646" type="qcurve" smooth="yes"/>
      <point x="402" y="684"/>
      <point x="402" y="684"/>
      <point x="406" y="684" type="qcurve" smooth="yes"/>
      <point x="410" y="684"/>
      <point x="410" y="684"/>
      <point x="410" y="646" type="qcurve" smooth="yes"/>
      <point x="410" y="608"/>
      <point x="410" y="608"/>
    </contour>
    <contour>
      <point x="406" y="684" type="qcurve" smooth="yes"/>
      <point x="402" y="684"/>
      <point x="402" y="684"/>
      <point x="402" y="722" type="qcurve" smooth="yes"/>
      <point x="402" y="760"/>
      <point x="402" y="760"/>
      <point x="406" y="760" type="qcurve" smooth="yes"/>
      <point x="410" y="760"/>
      <point x="410" y="760"/>
      <point x="410" y="722" type="qcurve" smooth="yes"/>
      <point x="410" y="684"/>
      <point x="410" y="684"/>
    </contour>
  </outline>
</glyph>
